<svg width="119" height="78" viewBox="0 0 119 78" fill="none" xmlns="http://www.w3.org/2000/svg">
<path d="M28.8081 67.612L48.1262 64.3881V51.8508L22.3086 64.9254C24.6556 64.7463 28.447 65.6419 28.8081 67.612Z" fill="url(#paint0_linear_163_1770)"/>
<path d="M28.8081 65.6418L48.1262 62.4179V49.8806L22.3086 62.9552C24.6556 62.597 28.447 63.6716 28.8081 65.6418Z" fill="url(#paint1_linear_163_1770)"/>
<path d="M90.193 67.612L70.875 64.3881V51.8508L96.6926 64.9254C94.3455 64.7463 90.5541 65.6419 90.193 67.612Z" fill="url(#paint2_linear_163_1770)"/>
<path d="M90.193 65.6418L70.875 62.4179V49.8806L96.6926 62.9552C94.3455 62.597 90.5541 63.6716 90.193 65.6418Z" fill="url(#paint3_linear_163_1770)"/>
<path d="M28.8089 23.0148V17.8208H17.6152V22.8357C17.6152 23.7312 18.1569 24.4477 19.2401 25.1641C21.4066 26.4178 25.0175 26.4178 27.184 25.1641C28.2672 24.6268 28.8089 23.7312 28.8089 23.0148Z" fill="url(#paint4_linear_163_1770)"/>
<path d="M27.184 15.6716C29.3505 16.9254 29.3505 18.8955 27.184 20.1492C25.0175 21.403 21.4066 21.403 19.2401 20.1492C17.0736 18.8955 17.0736 16.9254 19.2401 15.6716C21.4066 14.4179 25.0175 14.4179 27.184 15.6716Z" fill="url(#paint5_linear_163_1770)"/>
<path d="M28.0862 17.6417V13.1641H18.3369V17.6417C18.3369 18.3581 18.8785 19.0745 19.7813 19.6118C21.7672 20.6864 24.8364 20.6864 26.6419 19.6118C27.7251 19.0745 28.0862 18.3581 28.0862 17.6417Z" fill="url(#paint6_linear_163_1770)"/>
<path d="M26.6421 11.194C28.6281 12.2687 28.6281 14.0597 26.6421 15.1343C24.6561 16.209 21.5869 16.209 19.7815 15.1343C17.7955 14.0597 17.7955 12.2687 19.7815 11.194C21.7674 10.1194 24.8367 10.1194 26.6421 11.194Z" fill="url(#paint7_linear_163_1770)"/>
<path d="M32.2387 11.7313L28.8084 11.3731L26.6419 12.6268L24.1143 11.1939L43.6129 0.0894775L45.4183 1.1641C46.1404 1.52231 46.321 2.23873 45.5988 2.77604L34.0441 11.3731C33.5025 11.7313 32.9608 11.7313 32.2387 11.7313Z" fill="url(#paint8_linear_163_1770)"/>
<path d="M14.3648 14.4179L17.7951 14.7761L19.9616 13.5223L22.4892 14.9552L2.99062 26.0596L1.1852 24.985C0.463027 24.6268 0.282485 23.9104 1.00466 23.3731L12.5594 14.7761C13.101 14.597 13.6426 14.4179 14.3648 14.4179Z" fill="url(#paint9_linear_163_1770)"/>
<path d="M27.5442 11.0148H25.7388C24.2944 10.4775 22.489 10.4775 21.0447 11.0148H19.2393V12.985C19.2393 13.5223 19.6003 14.2387 20.5031 14.776C22.1279 15.6715 24.8361 15.6715 26.461 14.776C27.3637 14.2387 27.7248 13.7014 27.7248 12.985V11.0148H27.5442Z" fill="url(#paint10_linear_163_1770)"/>
<path d="M26.2811 9.40289C27.9059 10.2984 27.9059 11.9104 26.2811 12.8059C24.6562 13.7014 21.948 13.7014 20.3232 12.8059C18.6983 11.9104 18.6983 10.2984 20.3232 9.40289C21.948 8.32827 24.6562 8.32827 26.2811 9.40289Z" fill="url(#paint11_linear_163_1770)"/>
<path d="M25.1984 9.04483C26.2817 9.76125 26.2817 10.6568 25.1984 11.3732C24.1152 12.0896 22.3098 12.0896 21.2265 11.3732C20.1432 10.6568 20.1432 9.76125 21.2265 9.04483C22.3098 8.50752 24.1152 8.50752 25.1984 9.04483Z" fill="url(#paint12_linear_163_1770)"/>
<path d="M28.8079 68.6864V63.6715H17.6143V68.6864C17.6143 69.582 18.1559 70.2984 19.2391 71.0148C21.4057 72.2685 25.0165 72.2685 27.183 71.0148C28.2663 70.2984 28.8079 69.582 28.8079 68.6864Z" fill="url(#paint13_linear_163_1770)"/>
<path d="M27.183 61.3431C29.3495 62.5969 29.3495 64.567 27.183 65.8207C25.0165 67.0745 21.4057 67.0745 19.2391 65.8207C17.0726 64.567 17.0726 62.5969 19.2391 61.3431C21.4057 60.0894 25.0165 60.0894 27.183 61.3431Z" fill="url(#paint14_linear_163_1770)"/>
<path d="M28.0862 63.3133V59.0148H18.3369V63.4924C18.3369 64.2088 18.8785 64.9252 19.7813 65.4625C21.7672 66.5372 24.8364 66.5372 26.6419 65.4625C27.7251 64.7461 28.0862 64.0297 28.0862 63.3133Z" fill="url(#paint15_linear_163_1770)"/>
<path d="M26.6421 57.0446C28.6281 58.1192 28.6281 59.9103 26.6421 60.9849C24.6561 62.0595 21.5869 62.0595 19.7815 60.9849C17.7955 59.9103 17.7955 58.1192 19.7815 57.0446C21.7674 55.97 24.8367 55.97 26.6421 57.0446Z" fill="url(#paint16_linear_163_1770)"/>
<path d="M21.0449 53.6417L20.5032 55.6119L22.6697 56.8656L20.1422 58.2984L0.643555 47.194L2.44898 46.1194C3.17115 45.7611 4.43495 45.582 5.33766 45.9403L20.5032 52.5671C20.8643 52.9253 21.2254 53.2835 21.0449 53.6417Z" fill="url(#paint17_linear_163_1770)"/>
<path d="M25.7391 63.8507L26.2808 61.8805L24.1143 60.6268L26.6419 59.194L46.1405 70.2984L44.335 71.3731C43.6129 71.7313 42.3491 71.9104 41.4463 71.5522L26.2808 64.9253C25.9197 64.5671 25.7391 64.2089 25.7391 63.8507Z" fill="url(#paint18_linear_163_1770)"/>
<path d="M27.5442 56.6864H25.7388C24.2944 56.1491 22.489 56.1491 21.0447 56.6864H19.2393V58.6566C19.2393 59.1939 19.6003 59.9103 20.5031 60.4476C22.1279 61.3431 24.8361 61.3431 26.461 60.4476C27.3637 59.9103 27.7248 59.373 27.7248 58.6566V56.6864H27.5442Z" fill="url(#paint19_linear_163_1770)"/>
<path d="M26.2811 55.0746C27.9059 55.9701 27.9059 57.5821 26.2811 58.4776C24.6562 59.3731 21.948 59.3731 20.3232 58.4776C18.6983 57.5821 18.6983 55.9701 20.3232 55.0746C21.948 54.1791 24.6562 54.1791 26.2811 55.0746Z" fill="url(#paint20_linear_163_1770)"/>
<path d="M25.1984 54.8955C26.2817 55.6119 26.2817 56.5074 25.1984 57.2238C24.1152 57.9402 22.3098 57.9402 21.2265 57.2238C20.1432 56.5074 20.1432 55.6119 21.2265 54.8955C22.3098 54.179 24.1152 54.179 25.1984 54.8955Z" fill="url(#paint21_linear_163_1770)"/>
<path d="M101.387 68.6864V63.6715H90.1934V68.6864C90.1934 69.582 90.735 70.2984 91.8182 71.0148C93.9848 72.2685 97.5956 72.2685 99.7621 71.0148C100.845 70.2984 101.387 69.582 101.387 68.6864Z" fill="url(#paint22_linear_163_1770)"/>
<path d="M99.7621 61.3431C101.929 62.5969 101.929 64.567 99.7621 65.8207C97.5956 67.0745 93.9848 67.0745 91.8182 65.8207C89.6517 64.567 89.6517 62.5969 91.8182 61.3431C93.9848 60.0894 97.4151 60.0894 99.7621 61.3431Z" fill="url(#paint23_linear_163_1770)"/>
<path d="M100.663 63.3134V59.0149H90.9141V63.4925C90.9141 64.2089 91.4557 64.9253 92.3584 65.4626C94.3444 66.5373 97.4136 66.5373 99.219 65.4626C100.122 64.7462 100.663 64.0298 100.663 63.3134Z" fill="url(#paint24_linear_163_1770)"/>
<path d="M99.2192 57.0447C101.205 58.1194 101.205 59.9104 99.2192 60.985C97.2333 62.0597 94.164 62.0597 92.3586 60.985C90.3726 59.9104 90.3726 58.1194 92.3586 57.0447C94.164 55.9701 97.2333 55.9701 99.2192 57.0447Z" fill="url(#paint25_linear_163_1770)"/>
<path d="M104.636 57.4031L101.206 57.224L99.0393 58.4777L96.5117 57.0449L116.01 45.9404L117.816 47.0151C118.538 47.3733 118.718 48.0897 117.996 48.627L106.442 57.224C106.08 57.4031 105.358 57.5822 104.636 57.4031Z" fill="url(#paint26_linear_163_1770)"/>
<path d="M86.7623 60.2688L90.1926 60.627L92.3591 59.3733L94.8867 60.8061L75.3881 71.9106L73.5827 70.836C72.8605 70.4778 72.6799 69.7613 73.4021 69.224L84.9568 60.627C85.4985 60.2688 86.2206 60.0897 86.7623 60.2688Z" fill="url(#paint27_linear_163_1770)"/>
<path d="M99.9417 56.6866H98.1362C96.6919 56.1492 94.8865 56.1492 93.4421 56.6866H91.6367V58.6567C91.6367 59.194 91.9978 59.9104 92.9005 60.4477C94.5254 61.3433 97.2335 61.3433 98.8584 60.4477C99.7611 59.9104 100.122 59.3731 100.122 58.6567V56.6866H99.9417Z" fill="url(#paint28_linear_163_1770)"/>
<path d="M98.6775 55.0747C100.302 55.9702 100.302 57.5822 98.6775 58.4777C97.0527 59.3732 94.3445 59.3732 92.7196 58.4777C91.0948 57.5822 91.0948 55.9702 92.7196 55.0747C94.3445 54.1792 97.0527 54.1792 98.6775 55.0747Z" fill="url(#paint29_linear_163_1770)"/>
<path d="M97.7746 54.8956C98.8579 55.612 98.8579 56.5075 97.7746 57.2239C96.6914 57.9404 94.8859 57.9404 93.8027 57.2239C92.7194 56.5075 92.7194 55.612 93.8027 54.8956C94.8859 54.1792 96.6914 54.1792 97.7746 54.8956Z" fill="url(#paint30_linear_163_1770)"/>
<path d="M101.026 23.0148V17.8208H89.832V22.8357C89.832 23.7312 90.3737 24.4477 91.4569 25.1641C93.6234 26.4178 97.2343 26.4178 99.4008 25.1641C100.484 24.6268 101.026 23.7312 101.026 23.0148Z" fill="url(#paint31_linear_163_1770)"/>
<path d="M99.4008 15.6716C101.567 16.9254 101.567 18.8955 99.4008 20.1492C97.2343 21.403 93.6234 21.403 91.4569 20.1492C89.2904 18.8955 89.2904 16.9254 91.4569 15.6716C93.6234 14.4179 97.2343 14.4179 99.4008 15.6716Z" fill="url(#paint32_linear_163_1770)"/>
<path d="M100.302 17.6418V13.1642H90.5527V17.6418C90.5527 18.3582 91.0944 19.0746 91.9971 19.6119C93.983 20.6866 97.0523 20.6866 98.8577 19.6119C99.941 19.0746 100.302 18.3582 100.302 17.6418Z" fill="url(#paint33_linear_163_1770)"/>
<path d="M98.8579 11.1942C100.844 12.2688 100.844 14.0598 98.8579 15.1344C96.8719 16.2091 93.8027 16.2091 91.9973 15.1344C90.0113 14.0598 90.0113 12.2688 91.9973 11.1942C93.9833 10.1195 97.0525 10.1195 98.8579 11.1942Z" fill="url(#paint34_linear_163_1770)"/>
<path d="M93.2617 7.97015L92.72 9.94029L94.8865 11.194L92.3589 12.6269L72.8604 1.34328L74.6658 0.268657C75.3879 -0.0895522 76.6517 -0.0895522 77.5545 0.268657L92.72 6.89552C93.0811 7.07462 93.4422 7.43283 93.2617 7.97015Z" fill="url(#paint35_linear_163_1770)"/>
<path d="M97.9559 18.1791L98.4976 16.2089L96.3311 14.9552L98.8587 13.5223L118.357 24.6268L116.552 25.7014C115.83 26.0596 114.566 26.2387 113.663 25.8805L98.4976 19.2537C98.1365 18.8955 97.9559 18.5373 97.9559 18.1791Z" fill="url(#paint36_linear_163_1770)"/>
<path d="M99.761 11.0149H97.9556C96.5113 10.4776 94.7058 10.4776 93.2615 11.0149H91.4561V12.9851C91.4561 13.5224 91.8171 14.2388 92.7199 14.7761C94.3447 15.6716 97.0529 15.6716 98.6778 14.7761C99.5805 14.2388 99.9416 13.7015 99.9416 12.9851V11.0149H99.761Z" fill="url(#paint37_linear_163_1770)"/>
<path d="M98.4979 9.40302C100.123 10.2985 100.123 11.9105 98.4979 12.806C96.873 13.7015 94.1648 13.7015 92.54 12.806C90.9151 11.9105 90.9151 10.2985 92.54 9.40302C94.1648 8.32839 96.873 8.32839 98.4979 9.40302Z" fill="url(#paint38_linear_163_1770)"/>
<path d="M97.4152 9.04495C98.4985 9.76137 98.4985 10.6569 97.4152 11.3733C96.332 12.0897 94.5266 12.0897 93.4433 11.3733C92.36 10.6569 92.36 9.76137 93.4433 9.04495C94.5266 8.50764 96.332 8.50764 97.4152 9.04495Z" fill="url(#paint39_linear_163_1770)"/>
<path d="M22.4893 23.7314L48.3068 26.5971V39.1344L22.4893 26.0598V23.7314Z" fill="url(#paint40_linear_163_1770)"/>
<path d="M28.8081 21.0448L48.1262 24.2687V36.806L22.3086 23.7314C24.6556 24.0896 28.447 23.0149 28.8081 21.0448Z" fill="url(#paint41_linear_163_1770)"/>
<path d="M96.512 23.7314L70.875 26.5971V39.1344L96.512 26.0598V23.7314Z" fill="url(#paint42_linear_163_1770)"/>
<path d="M90.193 21.0448L70.875 24.2687V36.806L96.6926 23.7314C94.3455 24.0896 90.5541 23.0149 90.193 21.0448Z" fill="url(#paint43_linear_163_1770)"/>
<path d="M70.8748 65.4626H48.1265L45.96 23.9104C45.96 19.6119 49.5708 16.0298 53.9038 16.0298H65.0975C69.4305 16.0298 73.0413 19.6119 73.0413 23.9104L70.8748 65.4626Z" fill="url(#paint44_linear_163_1770)"/>
<path d="M68.708 65.4626H50.4732L48.3066 21.4029C48.3066 18.3581 50.8342 16.0298 53.7229 16.0298H65.2776C68.3469 16.0298 70.6939 18.5372 70.6939 21.4029L68.708 65.4626Z" fill="url(#paint45_linear_163_1770)"/>
<path d="M69.2495 72.8058H49.9314C48.8481 72.8058 48.126 72.0894 48.126 71.0148V66.179C48.126 65.1044 48.8481 64.3879 49.9314 64.3879H69.2495C70.3327 64.3879 71.0549 65.1044 71.0549 66.179V70.8357C71.0549 71.9103 70.1522 72.8058 69.2495 72.8058Z" fill="url(#paint46_linear_163_1770)"/>
<path d="M69.9724 65.6418H49.21V71.5523H69.9724V65.6418Z" fill="url(#paint47_linear_163_1770)"/>
<path d="M63.2917 78H55.3478C54.6256 78 54.084 77.4627 54.084 76.7462V72.6268H64.5555V76.7462C64.5555 77.4627 64.0138 78 63.2917 78Z" fill="url(#paint48_linear_163_1770)"/>
<path d="M53.3627 77.4627C52.821 77.4627 52.46 77.1044 52.46 76.5671V72.6268H54.0848V76.5671C54.0848 77.1044 53.7238 77.4627 53.3627 77.4627Z" fill="url(#paint49_linear_163_1770)"/>
<path d="M65.4584 77.4627C64.9167 77.4627 64.5557 77.1044 64.5557 76.5671V72.6268H66.1805V76.5671C66.1805 77.1044 65.8195 77.4627 65.4584 77.4627Z" fill="url(#paint50_linear_163_1770)"/>
<path d="M60.7643 77.9999H57.6951C56.7924 77.9999 55.8896 77.2835 55.8896 76.2089C55.8896 75.3134 56.6118 74.4178 57.6951 74.4178H60.7643C61.667 74.4178 62.5697 75.1343 62.5697 76.2089C62.5697 77.2835 61.8476 77.9999 60.7643 77.9999Z" fill="url(#paint51_linear_163_1770)"/>
<path d="M59.5002 76.388C59.5002 77.1044 58.9586 77.6417 58.2365 77.6417C57.5143 77.6417 56.9727 77.1044 56.9727 76.388C56.9727 75.6716 57.5143 75.1343 58.2365 75.1343C58.9586 74.9552 59.5002 75.6716 59.5002 76.388Z" fill="url(#paint52_linear_163_1770)"/>
<path d="M58.959 75.6716C58.959 76.0298 58.5979 76.388 58.2368 76.388C57.8757 76.388 57.5146 76.0298 57.5146 75.6716C57.5146 75.3134 57.8757 74.9552 58.2368 74.9552C58.5979 74.9552 58.959 75.3134 58.959 75.6716Z" fill="url(#paint53_linear_163_1770)"/>
<path d="M62.0281 76.7462C62.2275 76.7462 62.3892 76.5858 62.3892 76.388C62.3892 76.1902 62.2275 76.0298 62.0281 76.0298C61.8287 76.0298 61.667 76.1902 61.667 76.388C61.667 76.5858 61.8287 76.7462 62.0281 76.7462Z" fill="url(#paint54_linear_163_1770)"/>
<path d="M51.9179 17.9999C51.9179 18.3581 51.7373 18.5372 51.1957 18.7164C50.8346 18.8955 50.293 18.7163 50.293 18.3581C50.293 17.9999 50.4735 17.8208 51.0151 17.6417C51.5568 17.6417 51.9179 17.8208 51.9179 17.9999Z" fill="url(#paint55_linear_163_1770)"/>
<path d="M67.083 17.9999C67.083 18.3581 67.2636 18.5372 67.8052 18.7164C68.1663 18.8955 68.7079 18.7163 68.7079 18.3581C68.7079 17.9999 68.5273 17.8208 67.9857 17.6417C67.4441 17.6417 67.083 17.8208 67.083 17.9999Z" fill="url(#paint56_linear_163_1770)"/>
<path d="M53.0009 61.8805C53.0009 62.2388 52.8203 62.4179 52.2787 62.597C51.9176 62.7761 51.376 62.597 51.376 62.2388C51.376 61.8805 51.5565 61.7014 52.0981 61.5223C52.6398 61.5223 53.0009 61.7014 53.0009 61.8805Z" fill="url(#paint57_linear_163_1770)"/>
<path d="M66 61.8805C66 62.2388 66.1805 62.4179 66.7222 62.597C67.0833 62.7761 67.6249 62.597 67.6249 62.2388C67.6249 61.8805 67.4443 61.7014 66.9027 61.5223C66.3611 61.5223 66 61.7014 66 61.8805Z" fill="url(#paint58_linear_163_1770)"/>
<defs>
<linearGradient id="paint0_linear_163_1770" x1="28.577" y1="54.6538" x2="47.5667" y2="65.7052" gradientUnits="userSpaceOnUse">
<stop offset="0.00182292" stop-color="#00010A"/>
<stop offset="0.571" stop-color="#424653"/>
<stop offset="1" stop-color="#767D8D"/>
</linearGradient>
<linearGradient id="paint1_linear_163_1770" x1="28.577" y1="52.6161" x2="47.5667" y2="63.6678" gradientUnits="userSpaceOnUse">
<stop stop-color="#767D8D"/>
<stop offset="0.429" stop-color="#424653"/>
<stop offset="0.9982" stop-color="#00010A"/>
</linearGradient>
<linearGradient id="paint2_linear_163_1770" x1="90.4754" y1="54.6538" x2="71.4856" y2="65.7052" gradientUnits="userSpaceOnUse">
<stop offset="0.00182292" stop-color="#00010A"/>
<stop offset="0.571" stop-color="#424653"/>
<stop offset="1" stop-color="#767D8D"/>
</linearGradient>
<linearGradient id="paint3_linear_163_1770" x1="90.4754" y1="52.6161" x2="71.4856" y2="63.6678" gradientUnits="userSpaceOnUse">
<stop stop-color="#767D8D"/>
<stop offset="0.429" stop-color="#424653"/>
<stop offset="0.9982" stop-color="#00010A"/>
</linearGradient>
<linearGradient id="paint4_linear_163_1770" x1="17.6476" y1="22.0152" x2="28.8676" y2="22.0152" gradientUnits="userSpaceOnUse">
<stop stop-color="#767D8D"/>
<stop offset="0.429" stop-color="#424653"/>
<stop offset="0.9982" stop-color="#00010A"/>
</linearGradient>
<linearGradient id="paint5_linear_163_1770" x1="19.2908" y1="20.14" x2="23.2104" y2="13.2971" gradientUnits="userSpaceOnUse">
<stop stop-color="#767D8D"/>
<stop offset="0.429" stop-color="#424653"/>
<stop offset="0.9982" stop-color="#00010A"/>
</linearGradient>
<linearGradient id="paint6_linear_163_1770" x1="18.3981" y1="16.8165" x2="28.1158" y2="16.8165" gradientUnits="userSpaceOnUse">
<stop stop-color="#E6E6E6"/>
<stop offset="0.2445" stop-color="#CDD0D5"/>
<stop offset="0.9982" stop-color="#848EA2"/>
</linearGradient>
<linearGradient id="paint7_linear_163_1770" x1="19.8221" y1="15.1923" x2="23.2167" y2="9.26607" gradientUnits="userSpaceOnUse">
<stop stop-color="#E6E6E6"/>
<stop offset="0.2445" stop-color="#CDD0D5"/>
<stop offset="0.9982" stop-color="#848EA2"/>
</linearGradient>
<linearGradient id="paint8_linear_163_1770" x1="26.611" y1="12.6607" x2="36.2194" y2="-4.11457" gradientUnits="userSpaceOnUse">
<stop stop-color="#002694"/>
<stop offset="0.3058" stop-color="#1242B6"/>
<stop offset="0.9982" stop-color="#3980FF"/>
</linearGradient>
<linearGradient id="paint9_linear_163_1770" x1="0.528885" y1="24.6973" x2="10.1372" y2="7.92198" gradientUnits="userSpaceOnUse">
<stop offset="0.00182292" stop-color="#3980FF"/>
<stop offset="0.6942" stop-color="#1242B6"/>
<stop offset="1" stop-color="#002694"/>
</linearGradient>
<linearGradient id="paint10_linear_163_1770" x1="19.0322" y1="13.0229" x2="27.4812" y2="13.0229" gradientUnits="userSpaceOnUse">
<stop stop-color="#767D8D"/>
<stop offset="0.429" stop-color="#424653"/>
<stop offset="0.9982" stop-color="#00010A"/>
</linearGradient>
<linearGradient id="paint11_linear_163_1770" x1="20.2704" y1="12.74" x2="23.2219" y2="7.58727" gradientUnits="userSpaceOnUse">
<stop stop-color="#767D8D"/>
<stop offset="0.429" stop-color="#424653"/>
<stop offset="0.9982" stop-color="#00010A"/>
</linearGradient>
<linearGradient id="paint12_linear_163_1770" x1="21.2708" y1="11.3574" x2="23.2344" y2="7.92948" gradientUnits="userSpaceOnUse">
<stop stop-color="#E6E6E6"/>
<stop offset="0.2445" stop-color="#CDD0D5"/>
<stop offset="0.9982" stop-color="#848EA2"/>
</linearGradient>
<linearGradient id="paint13_linear_163_1770" x1="17.6446" y1="67.7424" x2="28.8646" y2="67.7424" gradientUnits="userSpaceOnUse">
<stop stop-color="#767D8D"/>
<stop offset="0.429" stop-color="#424653"/>
<stop offset="0.9982" stop-color="#00010A"/>
</linearGradient>
<linearGradient id="paint14_linear_163_1770" x1="19.2881" y1="65.8669" x2="23.2075" y2="59.0243" gradientUnits="userSpaceOnUse">
<stop stop-color="#767D8D"/>
<stop offset="0.429" stop-color="#424653"/>
<stop offset="0.9982" stop-color="#00010A"/>
</linearGradient>
<linearGradient id="paint15_linear_163_1770" x1="18.3963" y1="62.5438" x2="28.1138" y2="62.5438" gradientUnits="userSpaceOnUse">
<stop stop-color="#E6E6E6"/>
<stop offset="0.2445" stop-color="#CDD0D5"/>
<stop offset="0.9982" stop-color="#848EA2"/>
</linearGradient>
<linearGradient id="paint16_linear_163_1770" x1="19.8201" y1="60.9194" x2="23.2146" y2="54.9932" gradientUnits="userSpaceOnUse">
<stop stop-color="#E6E6E6"/>
<stop offset="0.2445" stop-color="#CDD0D5"/>
<stop offset="0.9982" stop-color="#848EA2"/>
</linearGradient>
<linearGradient id="paint17_linear_163_1770" x1="22.625" y1="56.8291" x2="13.0169" y2="40.0541" gradientUnits="userSpaceOnUse">
<stop stop-color="#002694"/>
<stop offset="0.3058" stop-color="#1242B6"/>
<stop offset="0.9982" stop-color="#3980FF"/>
</linearGradient>
<linearGradient id="paint18_linear_163_1770" x1="43.6406" y1="71.7677" x2="34.0321" y2="54.9921" gradientUnits="userSpaceOnUse">
<stop offset="0.00182292" stop-color="#3980FF"/>
<stop offset="0.6942" stop-color="#1242B6"/>
<stop offset="1" stop-color="#002694"/>
</linearGradient>
<linearGradient id="paint19_linear_163_1770" x1="19.0302" y1="58.7515" x2="27.4792" y2="58.7515" gradientUnits="userSpaceOnUse">
<stop stop-color="#767D8D"/>
<stop offset="0.429" stop-color="#424653"/>
<stop offset="0.9982" stop-color="#00010A"/>
</linearGradient>
<linearGradient id="paint20_linear_163_1770" x1="20.2683" y1="58.4686" x2="23.2198" y2="53.3159" gradientUnits="userSpaceOnUse">
<stop stop-color="#767D8D"/>
<stop offset="0.429" stop-color="#424653"/>
<stop offset="0.9982" stop-color="#00010A"/>
</linearGradient>
<linearGradient id="paint21_linear_163_1770" x1="21.2691" y1="57.086" x2="23.2326" y2="53.6582" gradientUnits="userSpaceOnUse">
<stop stop-color="#E6E6E6"/>
<stop offset="0.2445" stop-color="#CDD0D5"/>
<stop offset="0.9982" stop-color="#848EA2"/>
</linearGradient>
<linearGradient id="paint22_linear_163_1770" x1="90.1119" y1="67.7424" x2="101.332" y2="67.7424" gradientUnits="userSpaceOnUse">
<stop stop-color="#767D8D"/>
<stop offset="0.429" stop-color="#424653"/>
<stop offset="0.9982" stop-color="#00010A"/>
</linearGradient>
<linearGradient id="paint23_linear_163_1770" x1="91.7555" y1="65.8669" x2="95.6748" y2="59.0245" gradientUnits="userSpaceOnUse">
<stop stop-color="#767D8D"/>
<stop offset="0.429" stop-color="#424653"/>
<stop offset="0.9982" stop-color="#00010A"/>
</linearGradient>
<linearGradient id="paint24_linear_163_1770" x1="90.8617" y1="62.544" x2="100.579" y2="62.544" gradientUnits="userSpaceOnUse">
<stop stop-color="#E6E6E6"/>
<stop offset="0.2445" stop-color="#CDD0D5"/>
<stop offset="0.9982" stop-color="#848EA2"/>
</linearGradient>
<linearGradient id="paint25_linear_163_1770" x1="92.2854" y1="60.9196" x2="95.6799" y2="54.9934" gradientUnits="userSpaceOnUse">
<stop stop-color="#E6E6E6"/>
<stop offset="0.2445" stop-color="#CDD0D5"/>
<stop offset="0.9982" stop-color="#848EA2"/>
</linearGradient>
<linearGradient id="paint26_linear_163_1770" x1="99.0754" y1="58.3882" x2="108.684" y2="41.613" gradientUnits="userSpaceOnUse">
<stop stop-color="#002694"/>
<stop offset="0.3058" stop-color="#1242B6"/>
<stop offset="0.9982" stop-color="#3980FF"/>
</linearGradient>
<linearGradient id="paint27_linear_163_1770" x1="72.9934" y1="70.4252" x2="82.6017" y2="53.6499" gradientUnits="userSpaceOnUse">
<stop offset="0.00182292" stop-color="#3980FF"/>
<stop offset="0.6942" stop-color="#1242B6"/>
<stop offset="1" stop-color="#002694"/>
</linearGradient>
<linearGradient id="paint28_linear_163_1770" x1="91.4964" y1="58.7502" x2="99.9455" y2="58.7502" gradientUnits="userSpaceOnUse">
<stop stop-color="#767D8D"/>
<stop offset="0.429" stop-color="#424653"/>
<stop offset="0.9982" stop-color="#00010A"/>
</linearGradient>
<linearGradient id="paint29_linear_163_1770" x1="92.7338" y1="58.4672" x2="95.6851" y2="53.3147" gradientUnits="userSpaceOnUse">
<stop stop-color="#767D8D"/>
<stop offset="0.429" stop-color="#424653"/>
<stop offset="0.9982" stop-color="#00010A"/>
</linearGradient>
<linearGradient id="paint30_linear_163_1770" x1="93.7333" y1="57.0847" x2="95.6967" y2="53.6569" gradientUnits="userSpaceOnUse">
<stop stop-color="#E6E6E6"/>
<stop offset="0.2445" stop-color="#CDD0D5"/>
<stop offset="0.9982" stop-color="#848EA2"/>
</linearGradient>
<linearGradient id="paint31_linear_163_1770" x1="89.8793" y1="22.0152" x2="101.099" y2="22.0152" gradientUnits="userSpaceOnUse">
<stop stop-color="#767D8D"/>
<stop offset="0.429" stop-color="#424653"/>
<stop offset="0.9982" stop-color="#00010A"/>
</linearGradient>
<linearGradient id="paint32_linear_163_1770" x1="91.523" y1="20.1397" x2="95.4424" y2="13.2973" gradientUnits="userSpaceOnUse">
<stop stop-color="#767D8D"/>
<stop offset="0.429" stop-color="#424653"/>
<stop offset="0.9982" stop-color="#00010A"/>
</linearGradient>
<linearGradient id="paint33_linear_163_1770" x1="90.6291" y1="16.8167" x2="100.347" y2="16.8167" gradientUnits="userSpaceOnUse">
<stop stop-color="#E6E6E6"/>
<stop offset="0.2445" stop-color="#CDD0D5"/>
<stop offset="0.9982" stop-color="#848EA2"/>
</linearGradient>
<linearGradient id="paint34_linear_163_1770" x1="92.0529" y1="15.1925" x2="95.4475" y2="9.26624" gradientUnits="userSpaceOnUse">
<stop stop-color="#E6E6E6"/>
<stop offset="0.2445" stop-color="#CDD0D5"/>
<stop offset="0.9982" stop-color="#848EA2"/>
</linearGradient>
<linearGradient id="paint35_linear_163_1770" x1="94.8589" y1="11.102" x2="85.2506" y2="-5.67319" gradientUnits="userSpaceOnUse">
<stop stop-color="#002694"/>
<stop offset="0.3058" stop-color="#1242B6"/>
<stop offset="0.9982" stop-color="#3980FF"/>
</linearGradient>
<linearGradient id="paint36_linear_163_1770" x1="115.874" y1="26.0401" x2="106.266" y2="9.26528" gradientUnits="userSpaceOnUse">
<stop offset="0.00182292" stop-color="#3980FF"/>
<stop offset="0.6942" stop-color="#1242B6"/>
<stop offset="1" stop-color="#002694"/>
</linearGradient>
<linearGradient id="paint37_linear_163_1770" x1="91.264" y1="13.0245" x2="99.7132" y2="13.0245" gradientUnits="userSpaceOnUse">
<stop stop-color="#767D8D"/>
<stop offset="0.429" stop-color="#424653"/>
<stop offset="0.9982" stop-color="#00010A"/>
</linearGradient>
<linearGradient id="paint38_linear_163_1770" x1="92.5021" y1="12.7415" x2="95.4536" y2="7.58869" gradientUnits="userSpaceOnUse">
<stop stop-color="#767D8D"/>
<stop offset="0.429" stop-color="#424653"/>
<stop offset="0.9982" stop-color="#00010A"/>
</linearGradient>
<linearGradient id="paint39_linear_163_1770" x1="93.5028" y1="11.3589" x2="95.4662" y2="7.93114" gradientUnits="userSpaceOnUse">
<stop stop-color="#E6E6E6"/>
<stop offset="0.2445" stop-color="#CDD0D5"/>
<stop offset="0.9982" stop-color="#848EA2"/>
</linearGradient>
<linearGradient id="paint40_linear_163_1770" x1="28.0501" y1="35.6363" x2="47.0396" y2="24.5846" gradientUnits="userSpaceOnUse">
<stop offset="0.00182292" stop-color="#00010A"/>
<stop offset="0.571" stop-color="#424653"/>
<stop offset="1" stop-color="#767D8D"/>
</linearGradient>
<linearGradient id="paint41_linear_163_1770" x1="28.577" y1="34.1268" x2="47.5667" y2="23.0751" gradientUnits="userSpaceOnUse">
<stop stop-color="#767D8D"/>
<stop offset="0.429" stop-color="#424653"/>
<stop offset="0.9982" stop-color="#00010A"/>
</linearGradient>
<linearGradient id="paint42_linear_163_1770" x1="91.0026" y1="35.6363" x2="72.0128" y2="24.5846" gradientUnits="userSpaceOnUse">
<stop offset="0.00182292" stop-color="#00010A"/>
<stop offset="0.571" stop-color="#424653"/>
<stop offset="1" stop-color="#767D8D"/>
</linearGradient>
<linearGradient id="paint43_linear_163_1770" x1="90.4754" y1="34.1268" x2="71.4856" y2="23.0751" gradientUnits="userSpaceOnUse">
<stop stop-color="#767D8D"/>
<stop offset="0.429" stop-color="#424653"/>
<stop offset="0.9982" stop-color="#00010A"/>
</linearGradient>
<linearGradient id="paint44_linear_163_1770" x1="59.5263" y1="65.4393" x2="59.5263" y2="16.0074" gradientUnits="userSpaceOnUse">
<stop stop-color="#AACFF6"/>
<stop offset="0.2047" stop-color="#B3D3F4"/>
<stop offset="0.6094" stop-color="#C0D8F1"/>
<stop offset="0.9982" stop-color="#C4DAF0"/>
</linearGradient>
<linearGradient id="paint45_linear_163_1770" x1="59.5257" y1="65.4393" x2="59.5257" y2="16.0074" gradientUnits="userSpaceOnUse">
<stop stop-color="#B8D0FF"/>
<stop offset="0.0327639" stop-color="#BCD3FF"/>
<stop offset="0.2802" stop-color="#D9E6FF"/>
<stop offset="0.5259" stop-color="#EEF4FF"/>
<stop offset="0.767" stop-color="#FBFCFF"/>
<stop offset="0.9982" stop-color="white"/>
</linearGradient>
<linearGradient id="paint46_linear_163_1770" x1="59.5258" y1="72.7462" x2="59.5258" y2="64.4331" gradientUnits="userSpaceOnUse">
<stop stop-color="#4C505C"/>
<stop offset="0.1161" stop-color="#40444F"/>
<stop offset="0.4977" stop-color="#1D1F2A"/>
<stop offset="0.8052" stop-color="#080912"/>
<stop offset="0.9982" stop-color="#00010A"/>
</linearGradient>
<linearGradient id="paint47_linear_163_1770" x1="59.5263" y1="71.5184" x2="59.5263" y2="65.6614" gradientUnits="userSpaceOnUse">
<stop stop-color="#1A1E21"/>
<stop offset="0.9982" stop-color="#00010A"/>
</linearGradient>
<linearGradient id="paint48_linear_163_1770" x1="59.3416" y1="78.0317" x2="59.3416" y2="72.7463" gradientUnits="userSpaceOnUse">
<stop stop-color="#393E46"/>
<stop offset="0.9982" stop-color="#00010A"/>
</linearGradient>
<linearGradient id="paint49_linear_163_1770" x1="53.2899" y1="77.5518" x2="53.2899" y2="72.7463" gradientUnits="userSpaceOnUse">
<stop stop-color="#767D8D"/>
<stop offset="0.00230446" stop-color="#767D8D"/>
<stop offset="0.2362" stop-color="#4C515E"/>
<stop offset="0.4595" stop-color="#2B2E3A"/>
<stop offset="0.6671" stop-color="#13151F"/>
<stop offset="0.8528" stop-color="#050610"/>
<stop offset="0.9982" stop-color="#00010A"/>
</linearGradient>
<linearGradient id="paint50_linear_163_1770" x1="65.3945" y1="77.5518" x2="65.3945" y2="72.7463" gradientUnits="userSpaceOnUse">
<stop stop-color="#767D8D"/>
<stop offset="0.00230446" stop-color="#767D8D"/>
<stop offset="0.2362" stop-color="#4C515E"/>
<stop offset="0.4595" stop-color="#2B2E3A"/>
<stop offset="0.6671" stop-color="#13151F"/>
<stop offset="0.8528" stop-color="#050610"/>
<stop offset="0.9982" stop-color="#00010A"/>
</linearGradient>
<linearGradient id="paint51_linear_163_1770" x1="59.3418" y1="78.0316" x2="59.3418" y2="74.5663" gradientUnits="userSpaceOnUse">
<stop stop-color="#767D8D"/>
<stop offset="0.009384" stop-color="#757C8C"/>
<stop offset="0.9982" stop-color="#2D3344"/>
</linearGradient>
<linearGradient id="paint52_linear_163_1770" x1="58.2428" y1="77.5719" x2="58.2428" y2="75.0263" gradientUnits="userSpaceOnUse">
<stop stop-color="#393E46"/>
<stop offset="0.9982" stop-color="#00010A"/>
</linearGradient>
<linearGradient id="paint53_linear_163_1770" x1="58.2431" y1="76.3818" x2="58.2431" y2="75.0263" gradientUnits="userSpaceOnUse">
<stop stop-color="#393E46"/>
<stop offset="0.9982" stop-color="#00010A"/>
</linearGradient>
<linearGradient id="paint54_linear_163_1770" x1="61.953" y1="76.5748" x2="61.953" y2="76.0232" gradientUnits="userSpaceOnUse">
<stop stop-color="#393E46"/>
<stop offset="0.9982" stop-color="#00010A"/>
</linearGradient>
<linearGradient id="paint55_linear_163_1770" x1="51.311" y1="18.7261" x2="51.0862" y2="17.7448" gradientUnits="userSpaceOnUse">
<stop stop-color="#767D8D"/>
<stop offset="0.429" stop-color="#424653"/>
<stop offset="0.9982" stop-color="#00010A"/>
</linearGradient>
<linearGradient id="paint56_linear_163_1770" x1="67.7401" y1="18.7261" x2="67.965" y2="17.7447" gradientUnits="userSpaceOnUse">
<stop stop-color="#767D8D"/>
<stop offset="0.429" stop-color="#424653"/>
<stop offset="0.9982" stop-color="#00010A"/>
</linearGradient>
<linearGradient id="paint57_linear_163_1770" x1="52.3927" y1="62.5792" x2="52.1679" y2="61.5979" gradientUnits="userSpaceOnUse">
<stop stop-color="#767D8D"/>
<stop offset="0.429" stop-color="#424653"/>
<stop offset="0.9982" stop-color="#00010A"/>
</linearGradient>
<linearGradient id="paint58_linear_163_1770" x1="66.6584" y1="62.579" x2="66.8832" y2="61.5979" gradientUnits="userSpaceOnUse">
<stop stop-color="#767D8D"/>
<stop offset="0.429" stop-color="#424653"/>
<stop offset="0.9982" stop-color="#00010A"/>
</linearGradient>
</defs>
</svg>
