<svg width="347" height="154" viewBox="0 0 347 154" fill="none" xmlns="http://www.w3.org/2000/svg">
<ellipse cx="181.594" cy="3.5" rx="3.0051" ry="3.5" fill="#F4F4F4"/>
<ellipse cx="181.594" cy="24.5" rx="3.0051" ry="3.5" fill="#F4F4F4"/>
<ellipse cx="181.594" cy="45.5" rx="3.0051" ry="3.5" fill="#F4F4F4"/>
<ellipse cx="181.594" cy="66.5" rx="3.0051" ry="3.5" fill="#F4F4F4"/>
<ellipse cx="181.594" cy="87.5" rx="3.0051" ry="3.5" fill="#F4F4F4"/>
<ellipse cx="181.594" cy="108.5" rx="3.0051" ry="3.5" fill="#F4F4F4"/>
<ellipse cx="181.594" cy="129.5" rx="3.0051" ry="3.5" fill="#F4F4F4"/>
<ellipse cx="181.594" cy="150.5" rx="3.0051" ry="3.5" fill="#F4F4F4"/>
<ellipse cx="199.625" cy="3.5" rx="3.0051" ry="3.5" fill="#F4F4F4"/>
<ellipse cx="199.625" cy="24.5" rx="3.0051" ry="3.5" fill="#F4F4F4"/>
<ellipse cx="199.625" cy="45.5" rx="3.0051" ry="3.5" fill="#F4F4F4"/>
<ellipse cx="199.625" cy="66.5" rx="3.0051" ry="3.5" fill="#F4F4F4"/>
<ellipse cx="199.625" cy="87.5" rx="3.0051" ry="3.5" fill="#F4F4F4"/>
<ellipse cx="199.625" cy="108.5" rx="3.0051" ry="3.5" fill="#F4F4F4"/>
<ellipse cx="199.625" cy="129.5" rx="3.0051" ry="3.5" fill="#F4F4F4"/>
<ellipse cx="199.625" cy="150.5" rx="3.0051" ry="3.5" fill="#F4F4F4"/>
<ellipse cx="217.655" cy="3.5" rx="3.0051" ry="3.5" fill="#F4F4F4"/>
<ellipse cx="217.655" cy="24.5" rx="3.0051" ry="3.5" fill="#F4F4F4"/>
<ellipse cx="217.655" cy="45.5" rx="3.0051" ry="3.5" fill="#F4F4F4"/>
<ellipse cx="217.655" cy="66.5" rx="3.0051" ry="3.5" fill="#F4F4F4"/>
<ellipse cx="217.655" cy="87.5" rx="3.0051" ry="3.5" fill="#F4F4F4"/>
<ellipse cx="217.655" cy="108.5" rx="3.0051" ry="3.5" fill="#F4F4F4"/>
<ellipse cx="217.655" cy="129.5" rx="3.0051" ry="3.5" fill="#F4F4F4"/>
<ellipse cx="217.655" cy="150.5" rx="3.0051" ry="3.5" fill="#F4F4F4"/>
<ellipse cx="235.686" cy="3.5" rx="3.0051" ry="3.5" fill="#F4F4F4"/>
<ellipse cx="235.686" cy="24.5" rx="3.0051" ry="3.5" fill="#F4F4F4"/>
<ellipse cx="235.686" cy="45.5" rx="3.0051" ry="3.5" fill="#F4F4F4"/>
<ellipse cx="235.686" cy="66.5" rx="3.0051" ry="3.5" fill="#F4F4F4"/>
<ellipse cx="235.686" cy="87.5" rx="3.0051" ry="3.5" fill="#F4F4F4"/>
<ellipse cx="235.686" cy="108.5" rx="3.0051" ry="3.5" fill="#F4F4F4"/>
<ellipse cx="235.686" cy="129.5" rx="3.0051" ry="3.5" fill="#F4F4F4"/>
<ellipse cx="235.686" cy="150.5" rx="3.0051" ry="3.5" fill="#F4F4F4"/>
<ellipse cx="253.716" cy="3.5" rx="3.0051" ry="3.5" fill="#F4F4F4"/>
<ellipse cx="253.716" cy="24.5" rx="3.0051" ry="3.5" fill="#F4F4F4"/>
<ellipse cx="253.716" cy="45.5" rx="3.0051" ry="3.5" fill="#F4F4F4"/>
<ellipse cx="253.716" cy="66.5" rx="3.0051" ry="3.5" fill="#F4F4F4"/>
<ellipse cx="253.716" cy="87.5" rx="3.0051" ry="3.5" fill="#F4F4F4"/>
<ellipse cx="253.716" cy="108.5" rx="3.0051" ry="3.5" fill="#F4F4F4"/>
<ellipse cx="253.716" cy="129.5" rx="3.0051" ry="3.5" fill="#F4F4F4"/>
<ellipse cx="253.716" cy="150.5" rx="3.0051" ry="3.5" fill="#F4F4F4"/>
<ellipse cx="271.747" cy="3.5" rx="3.0051" ry="3.5" fill="#F4F4F4"/>
<ellipse cx="271.747" cy="24.5" rx="3.0051" ry="3.5" fill="#F4F4F4"/>
<ellipse cx="271.747" cy="45.5" rx="3.0051" ry="3.5" fill="#F4F4F4"/>
<ellipse cx="271.747" cy="66.5" rx="3.0051" ry="3.5" fill="#F4F4F4"/>
<ellipse cx="271.747" cy="87.5" rx="3.0051" ry="3.5" fill="#F4F4F4"/>
<ellipse cx="271.747" cy="108.5" rx="3.0051" ry="3.5" fill="#F4F4F4"/>
<ellipse cx="271.747" cy="129.5" rx="3.0051" ry="3.5" fill="#F4F4F4"/>
<ellipse cx="271.747" cy="150.5" rx="3.0051" ry="3.5" fill="#F4F4F4"/>
<ellipse cx="289.778" cy="3.5" rx="3.0051" ry="3.5" fill="#F4F4F4"/>
<ellipse cx="289.778" cy="24.5" rx="3.0051" ry="3.5" fill="#F4F4F4"/>
<ellipse cx="289.778" cy="45.5" rx="3.0051" ry="3.5" fill="#F4F4F4"/>
<ellipse cx="289.778" cy="66.5" rx="3.0051" ry="3.5" fill="#F4F4F4"/>
<ellipse cx="289.778" cy="87.5" rx="3.0051" ry="3.5" fill="#F4F4F4"/>
<ellipse cx="289.778" cy="108.5" rx="3.0051" ry="3.5" fill="#F4F4F4"/>
<ellipse cx="289.778" cy="129.5" rx="3.0051" ry="3.5" fill="#F4F4F4"/>
<ellipse cx="289.778" cy="150.5" rx="3.0051" ry="3.5" fill="#F4F4F4"/>
<ellipse cx="307.808" cy="3.5" rx="3.0051" ry="3.5" fill="#F4F4F4"/>
<ellipse cx="307.808" cy="24.5" rx="3.0051" ry="3.5" fill="#F4F4F4"/>
<ellipse cx="307.808" cy="45.5" rx="3.0051" ry="3.5" fill="#F4F4F4"/>
<ellipse cx="307.808" cy="66.5" rx="3.0051" ry="3.5" fill="#F4F4F4"/>
<ellipse cx="307.808" cy="87.5" rx="3.0051" ry="3.5" fill="#F4F4F4"/>
<ellipse cx="307.808" cy="108.5" rx="3.0051" ry="3.5" fill="#F4F4F4"/>
<ellipse cx="307.808" cy="129.5" rx="3.0051" ry="3.5" fill="#F4F4F4"/>
<ellipse cx="307.808" cy="150.5" rx="3.0051" ry="3.5" fill="#F4F4F4"/>
<ellipse cx="325.839" cy="3.5" rx="3.0051" ry="3.5" fill="#F4F4F4"/>
<ellipse cx="325.839" cy="24.5" rx="3.0051" ry="3.5" fill="#F4F4F4"/>
<ellipse cx="325.839" cy="45.5" rx="3.0051" ry="3.5" fill="#F4F4F4"/>
<ellipse cx="325.839" cy="66.5" rx="3.0051" ry="3.5" fill="#F4F4F4"/>
<ellipse cx="325.839" cy="87.5" rx="3.0051" ry="3.5" fill="#F4F4F4"/>
<ellipse cx="325.839" cy="108.5" rx="3.0051" ry="3.5" fill="#F4F4F4"/>
<ellipse cx="325.839" cy="129.5" rx="3.0051" ry="3.5" fill="#F4F4F4"/>
<ellipse cx="325.839" cy="150.5" rx="3.0051" ry="3.5" fill="#F4F4F4"/>
<ellipse cx="343.87" cy="3.5" rx="3.0051" ry="3.5" fill="#F4F4F4"/>
<ellipse cx="343.87" cy="24.5" rx="3.0051" ry="3.5" fill="#F4F4F4"/>
<ellipse cx="343.87" cy="45.5" rx="3.0051" ry="3.5" fill="#F4F4F4"/>
<ellipse cx="343.87" cy="66.5" rx="3.0051" ry="3.5" fill="#F4F4F4"/>
<ellipse cx="343.87" cy="87.5" rx="3.0051" ry="3.5" fill="#F4F4F4"/>
<ellipse cx="343.87" cy="108.5" rx="3.0051" ry="3.5" fill="#F4F4F4"/>
<ellipse cx="343.87" cy="129.5" rx="3.0051" ry="3.5" fill="#F4F4F4"/>
<ellipse cx="343.87" cy="150.5" rx="3.0051" ry="3.5" fill="#F4F4F4"/>
<ellipse cx="3.0051" cy="3.5" rx="3.0051" ry="3.5" fill="#F4F4F4"/>
<ellipse cx="3.0051" cy="24.5" rx="3.0051" ry="3.5" fill="#F4F4F4"/>
<ellipse cx="3.0051" cy="45.5" rx="3.0051" ry="3.5" fill="#F4F4F4"/>
<ellipse cx="3.0051" cy="66.5" rx="3.0051" ry="3.5" fill="#F4F4F4"/>
<ellipse cx="3.0051" cy="87.5" rx="3.0051" ry="3.5" fill="#F4F4F4"/>
<ellipse cx="3.0051" cy="108.5" rx="3.0051" ry="3.5" fill="#F4F4F4"/>
<ellipse cx="3.0051" cy="129.5" rx="3.0051" ry="3.5" fill="#F4F4F4"/>
<ellipse cx="3.0051" cy="150.5" rx="3.0051" ry="3.5" fill="#F4F4F4"/>
<ellipse cx="21.0357" cy="3.5" rx="3.0051" ry="3.5" fill="#F4F4F4"/>
<ellipse cx="21.0357" cy="24.5" rx="3.0051" ry="3.5" fill="#F4F4F4"/>
<ellipse cx="21.0357" cy="45.5" rx="3.0051" ry="3.5" fill="#F4F4F4"/>
<ellipse cx="21.0357" cy="66.5" rx="3.0051" ry="3.5" fill="#F4F4F4"/>
<ellipse cx="21.0357" cy="87.5" rx="3.0051" ry="3.5" fill="#F4F4F4"/>
<ellipse cx="21.0357" cy="108.5" rx="3.0051" ry="3.5" fill="#F4F4F4"/>
<ellipse cx="21.0357" cy="129.5" rx="3.0051" ry="3.5" fill="#F4F4F4"/>
<ellipse cx="21.0357" cy="150.5" rx="3.0051" ry="3.5" fill="#F4F4F4"/>
<ellipse cx="39.0663" cy="3.5" rx="3.0051" ry="3.5" fill="#F4F4F4"/>
<ellipse cx="39.0663" cy="24.5" rx="3.0051" ry="3.5" fill="#F4F4F4"/>
<ellipse cx="39.0663" cy="45.5" rx="3.0051" ry="3.5" fill="#F4F4F4"/>
<ellipse cx="39.0663" cy="66.5" rx="3.0051" ry="3.5" fill="#F4F4F4"/>
<ellipse cx="39.0663" cy="87.5" rx="3.0051" ry="3.5" fill="#F4F4F4"/>
<ellipse cx="39.0663" cy="108.5" rx="3.0051" ry="3.5" fill="#F4F4F4"/>
<ellipse cx="39.0663" cy="129.5" rx="3.0051" ry="3.5" fill="#F4F4F4"/>
<ellipse cx="39.0663" cy="150.5" rx="3.0051" ry="3.5" fill="#F4F4F4"/>
<ellipse cx="57.097" cy="3.5" rx="3.0051" ry="3.5" fill="#F4F4F4"/>
<ellipse cx="57.097" cy="24.5" rx="3.0051" ry="3.5" fill="#F4F4F4"/>
<ellipse cx="57.097" cy="45.5" rx="3.0051" ry="3.5" fill="#F4F4F4"/>
<ellipse cx="57.097" cy="66.5" rx="3.0051" ry="3.5" fill="#F4F4F4"/>
<ellipse cx="57.097" cy="87.5" rx="3.0051" ry="3.5" fill="#F4F4F4"/>
<ellipse cx="57.097" cy="108.5" rx="3.0051" ry="3.5" fill="#F4F4F4"/>
<ellipse cx="57.097" cy="129.5" rx="3.0051" ry="3.5" fill="#F4F4F4"/>
<ellipse cx="57.097" cy="150.5" rx="3.0051" ry="3.5" fill="#F4F4F4"/>
<ellipse cx="75.1275" cy="3.5" rx="3.0051" ry="3.5" fill="#F4F4F4"/>
<ellipse cx="75.1275" cy="24.5" rx="3.0051" ry="3.5" fill="#F4F4F4"/>
<ellipse cx="75.1275" cy="45.5" rx="3.0051" ry="3.5" fill="#F4F4F4"/>
<ellipse cx="75.1275" cy="66.5" rx="3.0051" ry="3.5" fill="#F4F4F4"/>
<ellipse cx="75.1275" cy="87.5" rx="3.0051" ry="3.5" fill="#F4F4F4"/>
<ellipse cx="75.1275" cy="108.5" rx="3.0051" ry="3.5" fill="#F4F4F4"/>
<ellipse cx="75.1275" cy="129.5" rx="3.0051" ry="3.5" fill="#F4F4F4"/>
<ellipse cx="75.1275" cy="150.5" rx="3.0051" ry="3.5" fill="#F4F4F4"/>
<ellipse cx="93.1582" cy="3.5" rx="3.0051" ry="3.5" fill="#F4F4F4"/>
<ellipse cx="93.1582" cy="24.5" rx="3.0051" ry="3.5" fill="#F4F4F4"/>
<ellipse cx="93.1582" cy="45.5" rx="3.0051" ry="3.5" fill="#F4F4F4"/>
<ellipse cx="93.1582" cy="66.5" rx="3.0051" ry="3.5" fill="#F4F4F4"/>
<ellipse cx="93.1582" cy="87.5" rx="3.0051" ry="3.5" fill="#F4F4F4"/>
<ellipse cx="93.1582" cy="108.5" rx="3.0051" ry="3.5" fill="#F4F4F4"/>
<ellipse cx="93.1582" cy="129.5" rx="3.0051" ry="3.5" fill="#F4F4F4"/>
<ellipse cx="93.1582" cy="150.5" rx="3.0051" ry="3.5" fill="#F4F4F4"/>
<ellipse cx="111.189" cy="3.5" rx="3.0051" ry="3.5" fill="#F4F4F4"/>
<ellipse cx="111.189" cy="24.5" rx="3.0051" ry="3.5" fill="#F4F4F4"/>
<ellipse cx="111.189" cy="45.5" rx="3.0051" ry="3.5" fill="#F4F4F4"/>
<ellipse cx="111.189" cy="66.5" rx="3.0051" ry="3.5" fill="#F4F4F4"/>
<ellipse cx="111.189" cy="87.5" rx="3.0051" ry="3.5" fill="#F4F4F4"/>
<ellipse cx="111.189" cy="108.5" rx="3.0051" ry="3.5" fill="#F4F4F4"/>
<ellipse cx="111.189" cy="129.5" rx="3.0051" ry="3.5" fill="#F4F4F4"/>
<ellipse cx="111.189" cy="150.5" rx="3.0051" ry="3.5" fill="#F4F4F4"/>
<ellipse cx="129.219" cy="3.5" rx="3.0051" ry="3.5" fill="#F4F4F4"/>
<ellipse cx="129.219" cy="24.5" rx="3.0051" ry="3.5" fill="#F4F4F4"/>
<ellipse cx="129.219" cy="45.5" rx="3.0051" ry="3.5" fill="#F4F4F4"/>
<ellipse cx="129.219" cy="66.5" rx="3.0051" ry="3.5" fill="#F4F4F4"/>
<ellipse cx="129.219" cy="87.5" rx="3.0051" ry="3.5" fill="#F4F4F4"/>
<ellipse cx="129.219" cy="108.5" rx="3.0051" ry="3.5" fill="#F4F4F4"/>
<ellipse cx="129.219" cy="129.5" rx="3.0051" ry="3.5" fill="#F4F4F4"/>
<ellipse cx="129.219" cy="150.5" rx="3.0051" ry="3.5" fill="#F4F4F4"/>
<ellipse cx="147.25" cy="3.5" rx="3.0051" ry="3.5" fill="#F4F4F4"/>
<ellipse cx="147.25" cy="24.5" rx="3.0051" ry="3.5" fill="#F4F4F4"/>
<ellipse cx="147.25" cy="45.5" rx="3.0051" ry="3.5" fill="#F4F4F4"/>
<ellipse cx="147.25" cy="66.5" rx="3.0051" ry="3.5" fill="#F4F4F4"/>
<ellipse cx="147.25" cy="87.5" rx="3.0051" ry="3.5" fill="#F4F4F4"/>
<ellipse cx="147.25" cy="108.5" rx="3.0051" ry="3.5" fill="#F4F4F4"/>
<ellipse cx="147.25" cy="129.5" rx="3.0051" ry="3.5" fill="#F4F4F4"/>
<ellipse cx="147.25" cy="150.5" rx="3.0051" ry="3.5" fill="#F4F4F4"/>
<ellipse cx="165.281" cy="3.5" rx="3.0051" ry="3.5" fill="#F4F4F4"/>
<ellipse cx="165.281" cy="24.5" rx="3.0051" ry="3.5" fill="#F4F4F4"/>
<ellipse cx="165.281" cy="45.5" rx="3.0051" ry="3.5" fill="#F4F4F4"/>
<ellipse cx="165.281" cy="66.5" rx="3.0051" ry="3.5" fill="#F4F4F4"/>
<ellipse cx="165.281" cy="87.5" rx="3.0051" ry="3.5" fill="#F4F4F4"/>
<ellipse cx="165.281" cy="108.5" rx="3.0051" ry="3.5" fill="#F4F4F4"/>
<ellipse cx="165.281" cy="129.5" rx="3.0051" ry="3.5" fill="#F4F4F4"/>
<ellipse cx="165.281" cy="150.5" rx="3.0051" ry="3.5" fill="#F4F4F4"/>
</svg>
