<svg width="117" height="78" viewBox="0 0 117 78" fill="none" xmlns="http://www.w3.org/2000/svg">
<path d="M23.4631 72.167L24.5654 71.3531V58.6018L23.3057 59.8227L23.4631 72.167Z" fill="url(#paint0_linear_163_2260)"/>
<path d="M19.999 59.8226L21.7312 71.3531L23.4634 72.167L23.3059 59.8226L21.1013 58.3304L19.999 59.8226Z" fill="url(#paint1_linear_163_2260)"/>
<path d="M93.6941 72.167L92.5918 71.3531V58.6018L93.6941 59.8227V72.167Z" fill="url(#paint2_linear_163_2260)"/>
<path d="M97.0012 59.8226L95.4265 71.3531L93.6943 72.167V59.8226L95.8989 58.3304L97.0012 59.8226Z" fill="url(#paint3_linear_163_2260)"/>
<path d="M35.5883 37.5757C31.809 37.5757 27.7148 37.3044 23.3057 36.7617L23.4631 35.8122C30.0769 36.6261 35.9032 36.7617 41.0997 36.3548C43.1468 36.2191 45.5089 35.8122 48.0284 35.5409C52.595 34.8626 57.6341 34.0487 63.303 34.0487V34.9983C57.7915 34.9983 52.7525 35.8122 48.1859 36.3548C45.6664 36.7617 43.3043 37.0331 41.2572 37.3044C39.525 37.5757 37.6354 37.5757 35.5883 37.5757Z" fill="url(#paint4_linear_163_2260)"/>
<path d="M81.4119 37.5757C79.3648 37.5757 77.4752 37.44 75.743 37.3044C73.5385 37.1687 71.1764 36.7617 68.8144 36.3548C64.4052 35.6765 59.2087 34.9983 53.6973 34.9983V34.0487C59.3662 34.0487 64.4052 34.8626 68.9718 35.5409C71.4913 35.9478 73.8534 36.2191 75.9005 36.3548C81.097 36.7617 86.9234 36.6261 93.5371 35.8122L93.6946 36.7617C89.2854 37.3044 85.1912 37.5757 81.4119 37.5757Z" fill="url(#paint5_linear_163_2260)"/>
<path d="M98.5764 18.5844L99.9936 11.2592H90.2305L91.6477 18.72C91.8052 19.3983 92.435 20.0765 93.3799 20.4835C94.1672 20.7548 95.7419 20.8905 96.6867 20.4835C97.789 19.9409 98.4189 19.2626 98.5764 18.5844Z" fill="url(#paint6_linear_163_2260)"/>
<path d="M94.9541 30.2505H22.2031V34.5914H94.9541V30.2505Z" fill="url(#paint7_linear_163_2260)"/>
<path d="M59.5237 67.0122H57.4766V73.7948H59.5237V67.0122Z" fill="url(#paint8_linear_163_2260)"/>
<path d="M63.3032 73.7948C63.3032 76.1009 61.0986 78 58.4216 78C55.7446 78 53.54 76.1009 53.54 73.7948C53.54 71.4887 55.7446 69.5896 58.4216 69.5896C61.0986 69.5896 63.3032 71.4887 63.3032 73.7948Z" fill="url(#paint9_linear_163_2260)"/>
<path d="M61.7285 75.1513C61.7285 76.6434 60.3112 77.8643 58.5791 77.8643C56.8469 77.8643 55.4297 76.6434 55.4297 75.1513C55.4297 73.6591 56.8469 72.4382 58.5791 72.4382C60.3112 72.4382 61.7285 73.6591 61.7285 75.1513Z" fill="url(#paint10_linear_163_2260)"/>
<path d="M51.0205 75.0157V72.4383C51.0205 72.167 51.178 72.0314 51.4929 72.0314H54.3274C54.7998 72.0314 54.7998 75.4227 54.3274 75.4227H51.4929C51.3354 75.4227 51.0205 75.287 51.0205 75.0157Z" fill="url(#paint11_linear_163_2260)"/>
<path d="M60.6257 74.473H56.374V76.6435H60.6257V74.473Z" fill="url(#paint12_linear_163_2260)"/>
<path d="M58.5789 76.3721C59.1876 76.3721 59.6811 75.947 59.6811 75.4226C59.6811 74.8982 59.1876 74.473 58.5789 74.473C57.9701 74.473 57.4766 74.8982 57.4766 75.4226C57.4766 75.947 57.9701 76.3721 58.5789 76.3721Z" fill="url(#paint13_linear_163_2260)"/>
<path d="M58.5789 75.4227C58.8398 75.4227 59.0513 75.2405 59.0513 75.0157C59.0513 74.791 58.8398 74.6088 58.5789 74.6088C58.3179 74.6088 58.1064 74.791 58.1064 75.0157C58.1064 75.2405 58.3179 75.4227 58.5789 75.4227Z" fill="url(#paint14_linear_163_2260)"/>
<path d="M62.8305 59.0087H54.1697C53.2249 59.0087 52.4375 58.3305 52.4375 57.5165V54.6678H64.5627V57.5165C64.5627 58.4661 63.7753 59.0087 62.8305 59.0087Z" fill="url(#paint15_linear_163_2260)"/>
<path d="M64.5624 54.6679H52.4373L51.335 10.9879C51.335 6.24003 53.2246 2.44177 55.5866 2.44177H61.5705C63.9325 2.44177 65.8222 6.24003 65.8222 10.9879L64.5624 54.6679Z" fill="url(#paint16_linear_163_2260)"/>
<path d="M63.3027 54.6678H53.697L52.5947 8.41044C52.5947 5.15478 53.8545 2.57739 55.4292 2.57739H61.5705C63.1452 2.57739 64.405 5.15478 64.405 8.41044L63.3027 54.6678Z" fill="url(#paint17_linear_163_2260)"/>
<path d="M62.6728 63.4852H54.4844C54.1694 63.4852 53.8545 63.2139 53.8545 62.9426V59.1443H63.4601V62.9426C63.3027 63.2139 62.9877 63.4852 62.6728 63.4852Z" fill="url(#paint18_linear_163_2260)"/>
<path d="M24.5646 18.5844L25.9819 11.2592H16.2188L17.636 18.72C17.7934 19.3983 18.4233 20.0765 19.3681 20.4835C20.1555 20.7548 21.7302 20.8905 22.675 20.4835C23.9348 19.9409 24.4072 19.2626 24.5646 18.5844Z" fill="url(#paint19_linear_163_2260)"/>
<path d="M24.5646 9.22438C26.4543 10.1739 26.4543 11.6661 24.5646 12.6157C22.675 13.5653 19.5256 13.5653 17.636 12.6157C15.7463 11.6661 15.7463 10.1739 17.636 9.22438C19.5256 8.27482 22.675 8.27482 24.5646 9.22438Z" fill="url(#paint20_linear_163_2260)"/>
<path d="M31.0209 11.1235L26.4543 9.49565L24.4072 10.4452L21.8877 9.22435L40.6266 0C40.6266 0 41.2565 0.813913 41.7289 1.22087C42.2013 1.89913 42.3588 2.44174 41.7289 2.98435C39.5243 4.88348 32.5956 10.7165 32.5956 10.7165C32.1232 10.9878 31.4933 11.1235 31.0209 11.1235Z" fill="url(#paint21_linear_163_2260)"/>
<path d="M14.9594 11.2591L15.9042 12.2087L17.9513 11.2591L20.4708 12.48L1.7319 21.84C1.7319 21.84 1.10202 19.6696 2.20431 18.72L13.3847 11.5305C13.6996 11.2591 14.3295 11.1235 14.9594 11.2591Z" fill="url(#paint22_linear_163_2260)"/>
<path d="M25.195 9.22428H23.4629C22.0456 8.81733 20.3135 8.81733 18.8962 9.22428H17.1641V10.8521C17.1641 11.3947 17.6365 11.9373 18.4238 12.2086C19.9985 13.0225 22.518 13.0225 24.0927 12.2086C24.8801 11.8017 25.195 11.3947 25.195 10.8521V9.22428Z" fill="url(#paint23_linear_163_2260)"/>
<path d="M24.0931 7.73214C25.6678 8.54605 25.6678 9.76692 24.0931 10.5808C22.5184 11.3947 19.9989 11.3947 18.4242 10.5808C16.8495 9.76692 16.8495 8.54605 18.4242 7.73214C19.8414 6.91823 22.5184 6.91823 24.0931 7.73214Z" fill="url(#paint24_linear_163_2260)"/>
<path d="M22.99 6.64684H22.2026C21.5727 6.37553 20.7854 6.37553 20.1555 6.64684H19.3682V8.95292C19.3682 9.22423 19.5256 9.35988 19.8406 9.63119C20.4705 10.0381 21.5727 10.0381 22.3601 9.63119C22.675 9.49553 22.8325 9.22423 22.8325 8.95292V6.64684H22.99Z" fill="url(#paint25_linear_163_2260)"/>
<path d="M22.3601 6.10429C22.99 6.51125 22.99 7.05385 22.3601 7.32516C21.7302 7.59646 20.6279 7.73212 19.8406 7.32516C19.2107 6.9182 19.2107 6.37559 19.8406 6.10429C20.6279 5.69733 21.7302 5.69733 22.3601 6.10429Z" fill="url(#paint26_linear_163_2260)"/>
<path d="M63.3029 54.6678H53.6973V59.0087H63.3029V54.6678Z" fill="url(#paint27_linear_163_2260)"/>
<path d="M60.6257 66.6053C60.6257 68.0974 56.374 68.0974 56.374 66.6053V63.3496H60.6257V66.6053Z" fill="url(#paint28_linear_163_2260)"/>
<path d="M23.935 32.1496H19.8408V18.4487C19.8408 16.4139 23.935 16.4139 23.935 18.4487V32.1496Z" fill="url(#paint29_linear_163_2260)"/>
<path d="M24.4082 36.8974H19.3691V29.1652C19.3691 26.5878 24.4082 26.5878 24.4082 29.1652V36.8974Z" fill="url(#paint30_linear_163_2260)"/>
<path d="M24.4082 36.8974C24.4082 37.8469 23.3059 38.5252 21.8887 38.5252C20.4714 38.5252 19.3691 37.8469 19.3691 36.8974C19.3691 35.9478 20.4714 35.2695 21.8887 35.2695C23.1484 35.2695 24.4082 35.9478 24.4082 36.8974Z" fill="url(#paint31_linear_163_2260)"/>
<path d="M23.935 50.1914H19.8408V37.3044C19.8408 35.2696 23.935 35.2696 23.935 37.3044V50.1914Z" fill="url(#paint32_linear_163_2260)"/>
<path d="M97.3159 32.1496H93.2217V18.4487C93.2217 16.4139 97.3159 16.4139 97.3159 18.4487V32.1496Z" fill="url(#paint33_linear_163_2260)"/>
<path d="M97.789 36.8974H92.75V29.1652C92.75 26.5878 97.789 26.5878 97.789 29.1652V36.8974Z" fill="url(#paint34_linear_163_2260)"/>
<path d="M97.789 36.8974C97.789 37.8469 96.6867 38.5252 95.2695 38.5252C93.8523 38.5252 92.75 37.8469 92.75 36.8974C92.75 35.9478 93.8523 35.2695 95.2695 35.2695C96.6867 35.2695 97.789 35.9478 97.789 36.8974Z" fill="url(#paint35_linear_163_2260)"/>
<path d="M97.3159 50.1914H93.2217V37.3044C93.2217 35.2696 97.3159 35.2696 97.3159 37.3044V50.1914Z" fill="url(#paint36_linear_163_2260)"/>
<path d="M25.0373 58.8731L26.4545 51.5479H16.6914L18.1086 59.0087C18.2661 59.687 18.896 60.3652 19.8408 60.7722C20.6281 61.0435 22.2028 61.1792 23.1477 60.7722C24.4074 60.2296 24.8798 59.5513 25.0373 58.8731Z" fill="url(#paint37_linear_163_2260)"/>
<path d="M25.1955 49.6487C27.0851 50.5983 27.0851 52.0904 25.1955 53.04C23.3059 53.9896 20.1565 53.9896 18.2668 53.04C16.3772 52.0904 16.3772 50.5983 18.2668 49.6487C20.1565 48.6991 23.1484 48.6991 25.1955 49.6487Z" fill="url(#paint38_linear_163_2260)"/>
<path d="M19.9987 48.2922L19.2113 48.6991L21.2584 49.6487L18.7389 50.8695L0 41.6452C0 41.6452 2.20458 41.1026 4.88156 41.9165L19.3688 47.4782C19.8412 47.6139 19.9987 47.8852 19.9987 48.2922Z" fill="url(#paint39_linear_163_2260)"/>
<path d="M22.8335 57.5165L24.5657 53.7183L22.5186 52.7687L25.0381 51.5479L43.6195 60.7722L41.8873 61.5861C41.1 61.9931 39.9977 61.8574 39.2103 61.7218C35.4311 61.1792 23.6208 58.3305 23.6208 58.3305C22.991 58.1948 22.8335 57.9235 22.8335 57.5165Z" fill="url(#paint40_linear_163_2260)"/>
<path d="M25.6677 49.6487H23.9355C22.5183 49.2418 20.7861 49.2418 19.3689 49.6487H17.6367V51.2766C17.6367 51.8192 18.1091 52.3618 18.8965 52.6331C20.4712 53.447 22.9907 53.447 24.5654 52.6331C25.3527 52.2261 25.8251 51.6835 25.8251 51.2766V49.6487H25.6677Z" fill="url(#paint41_linear_163_2260)"/>
<path d="M24.5658 48.1565C26.1405 48.9704 26.1405 50.1912 24.5658 51.0051C22.9911 51.8191 20.4715 51.8191 18.8968 51.0051C17.3221 50.1912 17.3221 48.9704 18.8968 48.1565C20.3141 47.3425 22.9911 47.3425 24.5658 48.1565Z" fill="url(#paint42_linear_163_2260)"/>
<path d="M23.4626 47.0713H22.6753C22.0454 46.8 21.258 46.8 20.6282 47.0713H19.8408V49.3774C19.8408 49.6487 19.9983 49.7843 20.3132 50.0556C20.9431 50.4626 22.0454 50.4626 22.8327 50.0556C23.1477 49.92 23.3052 49.6487 23.3052 49.3774V47.0713H23.4626Z" fill="url(#paint43_linear_163_2260)"/>
<path d="M22.99 46.3931C23.6199 46.8 23.6199 47.3426 22.99 47.6139C22.3601 48.0209 21.2578 48.0209 20.4705 47.6139C19.8406 47.207 19.8406 46.6644 20.4705 46.3931C21.1003 46.1217 22.2026 46.1217 22.99 46.3931Z" fill="url(#paint44_linear_163_2260)"/>
<path d="M98.1037 58.8731L99.5209 51.5479H89.7578L91.175 59.0087C91.3325 59.687 91.9624 60.3652 92.9072 60.7722C93.6946 61.0435 95.2692 61.1792 96.2141 60.7722C97.3164 60.2296 97.7888 59.5513 98.1037 58.8731Z" fill="url(#paint45_linear_163_2260)"/>
<path d="M98.1037 49.5131C99.9933 50.4626 99.9933 51.9548 98.1037 52.9044C96.2141 53.8539 93.0647 53.8539 91.175 52.9044C89.2854 51.9548 89.2854 50.4626 91.175 49.5131C93.0647 48.5635 96.2141 48.5635 98.1037 49.5131Z" fill="url(#paint46_linear_163_2260)"/>
<path d="M104.402 51.4122L99.8352 49.92L97.7881 50.8696L95.2686 49.6487L114.007 40.2887C114.007 40.2887 114.637 41.1026 115.11 41.5096C115.582 42.1878 115.74 42.7304 115.11 43.273C112.905 45.1722 105.976 51.0052 105.976 51.0052C105.662 51.2765 105.032 51.4122 104.402 51.4122Z" fill="url(#paint47_linear_163_2260)"/>
<path d="M88.3402 51.5479L89.285 52.6331L91.3321 51.5479L93.8517 52.7687L75.1128 62.1287C75.1128 62.1287 74.4829 59.9583 75.5852 59.0087L86.7655 51.8192C87.0805 51.6835 87.7103 51.5479 88.3402 51.5479Z" fill="url(#paint48_linear_163_2260)"/>
<path d="M98.7331 49.5131H97.0009C95.5837 49.1061 93.8515 49.1061 92.4343 49.5131H90.7021V51.1409C90.7021 51.6835 91.1746 52.2261 91.9619 52.4975C93.5366 53.3114 96.0561 53.3114 97.6308 52.4975C98.4182 52.0905 98.8906 51.5479 98.8906 51.1409V49.5131H98.7331Z" fill="url(#paint49_linear_163_2260)"/>
<path d="M97.473 48.0209C99.0477 48.8348 99.0477 50.0557 97.473 50.8696C95.8983 51.6835 93.3788 51.6835 91.8041 50.8696C90.2294 50.0557 90.2294 48.8348 91.8041 48.0209C93.3788 47.3426 95.8983 47.3426 97.473 48.0209Z" fill="url(#paint50_linear_163_2260)"/>
<path d="M96.3716 47.0713H95.5842C94.9543 46.8 94.167 46.8 93.5371 47.0713H92.9072V49.3774C92.9072 49.6487 93.0647 49.7843 93.3796 50.0556C94.0095 50.4626 95.1118 50.4626 95.8992 50.0556C96.2141 49.92 96.3716 49.6487 96.3716 49.3774V47.0713Z" fill="url(#paint51_linear_163_2260)"/>
<path d="M95.8992 46.3931C96.529 46.8 96.529 47.3426 95.8992 47.6139C95.2693 48.0209 94.167 48.0209 93.3796 47.6139C92.7498 47.207 92.7498 46.6644 93.3796 46.3931C94.0095 46.1217 95.1118 46.1217 95.8992 46.3931Z" fill="url(#paint52_linear_163_2260)"/>
<path d="M60.6259 7.18954C60.6259 8.1391 59.6811 9.08867 58.4214 9.08867C57.3191 9.08867 56.2168 8.27475 56.2168 7.18954C56.2168 6.10432 57.1616 5.29041 58.4214 5.29041C59.6811 5.29041 60.6259 6.10432 60.6259 7.18954Z" fill="url(#paint53_linear_163_2260)"/>
<path d="M98.5764 9.22438C100.466 10.1739 100.466 11.6661 98.5764 12.6157C96.6867 13.5653 93.5373 13.5653 91.6477 12.6157C89.7581 11.6661 89.7581 10.1739 91.6477 9.22438C93.5373 8.27482 96.6867 8.27482 98.5764 9.22438Z" fill="url(#paint54_linear_163_2260)"/>
<path d="M93.3795 7.86784L92.5922 8.27479L94.4818 9.36001L91.9623 10.5809L73.3809 1.22088C73.3809 1.22088 75.5854 0.678271 78.2624 1.49218L92.7496 7.05392C93.222 7.32523 93.537 7.59653 93.3795 7.86784Z" fill="url(#paint55_linear_163_2260)"/>
<path d="M96.3716 17.2279L98.1037 13.4296L96.0566 12.48L98.5762 11.2592L117.158 20.4835L115.425 21.2974C114.638 21.7044 113.536 21.5687 112.748 21.4331C109.127 20.8905 97.1589 18.0418 97.1589 18.0418C96.5291 17.9061 96.2141 17.4992 96.3716 17.2279Z" fill="url(#paint56_linear_163_2260)"/>
<path d="M99.2058 9.22441H97.4736C96.0564 8.81745 94.3242 8.81745 92.907 9.22441H91.1748V10.8522C91.1748 11.3948 91.6472 11.9374 92.4346 12.2088C94.0093 13.0227 96.5288 13.0227 98.1035 12.2088C98.7333 11.9374 99.2058 11.3948 99.2058 10.8522V9.22441Z" fill="url(#paint57_linear_163_2260)"/>
<path d="M97.9466 7.86788C99.5213 8.68179 99.5213 9.90266 97.9466 10.7166C96.3719 11.5305 93.8524 11.5305 92.2777 10.7166C90.703 9.90266 90.703 8.68179 92.2777 7.86788C93.8524 7.05397 96.3719 7.05397 97.9466 7.86788Z" fill="url(#paint58_linear_163_2260)"/>
<path d="M96.8435 6.64684H96.0561C95.4263 6.37553 94.6389 6.37553 94.009 6.64684H93.2217V8.95292C93.2217 9.22423 93.3791 9.35988 93.6941 9.63119C94.324 10.0381 95.4263 10.0381 96.2136 9.63119C96.5285 9.49553 96.686 9.22423 96.686 8.95292V6.64684H96.8435Z" fill="url(#paint59_linear_163_2260)"/>
<path d="M96.3708 6.10429C97.0007 6.51125 97.0007 7.05386 96.3708 7.32516C95.741 7.73212 94.6387 7.73212 93.8513 7.32516C93.2214 6.9182 93.2214 6.37559 93.8513 6.10429C94.6387 5.69733 95.741 5.69733 96.3708 6.10429Z" fill="url(#paint60_linear_163_2260)"/>
<defs>
<linearGradient id="paint0_linear_163_2260" x1="23.9181" y1="72.1166" x2="23.9181" y2="58.5889" gradientUnits="userSpaceOnUse">
<stop offset="0.00182292" stop-color="#00010A"/>
<stop offset="1" stop-color="#393E46"/>
</linearGradient>
<linearGradient id="paint1_linear_163_2260" x1="20.0107" y1="65.2163" x2="23.4306" y2="65.2163" gradientUnits="userSpaceOnUse">
<stop stop-color="#393E46"/>
<stop offset="0.9982" stop-color="#00010A"/>
</linearGradient>
<linearGradient id="paint2_linear_163_2260" x1="93.1598" y1="72.1166" x2="93.1598" y2="58.5889" gradientUnits="userSpaceOnUse">
<stop offset="0.00182292" stop-color="#00010A"/>
<stop offset="1" stop-color="#393E46"/>
</linearGradient>
<linearGradient id="paint3_linear_163_2260" x1="97.0675" y1="65.2163" x2="93.6482" y2="65.2163" gradientUnits="userSpaceOnUse">
<stop stop-color="#393E46"/>
<stop offset="0.9982" stop-color="#00010A"/>
</linearGradient>
<linearGradient id="paint4_linear_163_2260" x1="23.3584" y1="35.8785" x2="63.359" y2="35.8785" gradientUnits="userSpaceOnUse">
<stop stop-color="#393E46"/>
<stop offset="0.9982" stop-color="#00010A"/>
</linearGradient>
<linearGradient id="paint5_linear_163_2260" x1="93.7199" y1="35.8785" x2="53.7198" y2="35.8785" gradientUnits="userSpaceOnUse">
<stop stop-color="#393E46"/>
<stop offset="0.9982" stop-color="#00010A"/>
</linearGradient>
<linearGradient id="paint6_linear_163_2260" x1="90.2563" y1="15.8612" x2="99.9912" y2="15.8612" gradientUnits="userSpaceOnUse">
<stop stop-color="#767D8D"/>
<stop offset="0.429" stop-color="#424653"/>
<stop offset="0.9982" stop-color="#00010A"/>
</linearGradient>
<linearGradient id="paint7_linear_163_2260" x1="58.5391" y1="34.6179" x2="58.5391" y2="30.3104" gradientUnits="userSpaceOnUse">
<stop stop-color="#393E46"/>
<stop offset="0.9982" stop-color="#00010A"/>
</linearGradient>
<linearGradient id="paint8_linear_163_2260" x1="58.5343" y1="73.7842" x2="58.5343" y2="67.0212" gradientUnits="userSpaceOnUse">
<stop stop-color="#393E46"/>
<stop offset="0.9982" stop-color="#00010A"/>
</linearGradient>
<linearGradient id="paint9_linear_163_2260" x1="53.7101" y1="73.7844" x2="63.3589" y2="73.7844" gradientUnits="userSpaceOnUse">
<stop offset="0.00182292" stop-color="white"/>
<stop offset="1" stop-color="#B8D0FF"/>
</linearGradient>
<linearGradient id="paint10_linear_163_2260" x1="58.5345" y1="77.9403" x2="58.5345" y2="72.4479" gradientUnits="userSpaceOnUse">
<stop stop-color="#393E46"/>
<stop offset="0.9982" stop-color="#00010A"/>
</linearGradient>
<linearGradient id="paint11_linear_163_2260" x1="51.0641" y1="73.7843" x2="54.6325" y2="73.7843" gradientUnits="userSpaceOnUse">
<stop stop-color="#393E46"/>
<stop offset="0.9982" stop-color="#00010A"/>
</linearGradient>
<linearGradient id="paint12_linear_163_2260" x1="58.534" y1="76.728" x2="58.534" y2="74.5295" gradientUnits="userSpaceOnUse">
<stop stop-color="#1A1E21"/>
<stop offset="0.9982" stop-color="#00010A"/>
</linearGradient>
<linearGradient id="paint13_linear_163_2260" x1="58.5343" y1="76.3339" x2="58.5343" y2="74.5699" gradientUnits="userSpaceOnUse">
<stop stop-color="#393E46"/>
<stop offset="0.9982" stop-color="#00010A"/>
</linearGradient>
<linearGradient id="paint14_linear_163_2260" x1="58.5343" y1="75.452" x2="58.5343" y2="74.57" gradientUnits="userSpaceOnUse">
<stop offset="0.00182292" stop-color="#00010A"/>
<stop offset="1"/>
</linearGradient>
<linearGradient id="paint15_linear_163_2260" x1="58.5343" y1="59.0638" x2="58.5343" y2="54.6919" gradientUnits="userSpaceOnUse">
<stop stop-color="#AACFF6"/>
<stop offset="0.0344639" stop-color="#ADD0F5"/>
<stop offset="0.2289" stop-color="#BAD6F2"/>
<stop offset="0.481" stop-color="#C2D9F1"/>
<stop offset="0.9982" stop-color="#C4DAF0"/>
</linearGradient>
<linearGradient id="paint16_linear_163_2260" x1="58.539" y1="54.6919" x2="58.539" y2="2.5484" gradientUnits="userSpaceOnUse">
<stop stop-color="#AACFF6"/>
<stop offset="0.0344639" stop-color="#ADD0F5"/>
<stop offset="0.2289" stop-color="#BAD6F2"/>
<stop offset="0.481" stop-color="#C2D9F1"/>
<stop offset="0.9982" stop-color="#C4DAF0"/>
</linearGradient>
<linearGradient id="paint17_linear_163_2260" x1="58.5391" y1="54.6918" x2="58.5391" y2="2.54836" gradientUnits="userSpaceOnUse">
<stop stop-color="#B8D0FF"/>
<stop offset="0.0320344" stop-color="#C1D6FF"/>
<stop offset="0.1277" stop-color="#D8E5FF"/>
<stop offset="0.239" stop-color="#EAF1FF"/>
<stop offset="0.3737" stop-color="#F6F9FF"/>
<stop offset="0.5564" stop-color="#FDFEFF"/>
<stop offset="0.9982" stop-color="white"/>
</linearGradient>
<linearGradient id="paint18_linear_163_2260" x1="58.534" y1="63.4671" x2="58.534" y2="59.0637" gradientUnits="userSpaceOnUse">
<stop stop-color="#393E46"/>
<stop offset="0.9982" stop-color="#00010A"/>
</linearGradient>
<linearGradient id="paint19_linear_163_2260" x1="16.2956" y1="15.8499" x2="26.0304" y2="15.8499" gradientUnits="userSpaceOnUse">
<stop stop-color="#767D8D"/>
<stop offset="0.429" stop-color="#424653"/>
<stop offset="0.9982" stop-color="#00010A"/>
</linearGradient>
<linearGradient id="paint20_linear_163_2260" x1="21.1694" y1="13.3652" x2="21.518" y2="8.46007" gradientUnits="userSpaceOnUse">
<stop stop-color="#767D8D"/>
<stop offset="0.429" stop-color="#424653"/>
<stop offset="0.9982" stop-color="#00010A"/>
</linearGradient>
<linearGradient id="paint21_linear_163_2260" x1="25.3057" y1="10.9968" x2="32.7341" y2="-3.93848" gradientUnits="userSpaceOnUse">
<stop offset="0.00182292" stop-color="#FF33CE"/>
<stop offset="0.571" stop-color="#CF1AB5"/>
<stop offset="1" stop-color="#FF00DB"/>
</linearGradient>
<linearGradient id="paint22_linear_163_2260" x1="4.74484" y1="21.7189" x2="11.946" y2="7.57496" gradientUnits="userSpaceOnUse">
<stop offset="0.00182292" stop-color="#FF33CE"/>
<stop offset="0.571" stop-color="#CF1AB5"/>
<stop offset="1" stop-color="#FF00DB"/>
</linearGradient>
<linearGradient id="paint23_linear_163_2260" x1="17.1222" y1="10.8182" x2="25.2174" y2="10.8182" gradientUnits="userSpaceOnUse">
<stop offset="0.00182292" stop-color="#00010A"/>
<stop offset="0.571" stop-color="#424653"/>
<stop offset="1" stop-color="#767D8D"/>
</linearGradient>
<linearGradient id="paint24_linear_163_2260" x1="18.3084" y1="10.5828" x2="20.5787" y2="6.01851" gradientUnits="userSpaceOnUse">
<stop offset="0.00182292" stop-color="#00010A"/>
<stop offset="0.571" stop-color="#424653"/>
<stop offset="1" stop-color="#767D8D"/>
</linearGradient>
<linearGradient id="paint25_linear_163_2260" x1="19.4134" y1="8.16519" x2="22.9252" y2="8.16519" gradientUnits="userSpaceOnUse">
<stop offset="0.00182292" stop-color="#00010A"/>
<stop offset="0.571" stop-color="#424653"/>
<stop offset="1" stop-color="#767D8D"/>
</linearGradient>
<linearGradient id="paint26_linear_163_2260" x1="19.9278" y1="7.29715" x2="20.9127" y2="5.31702" gradientUnits="userSpaceOnUse">
<stop offset="0.00182292" stop-color="#00010A"/>
<stop offset="0.571" stop-color="#424653"/>
<stop offset="1" stop-color="#767D8D"/>
</linearGradient>
<linearGradient id="paint27_linear_163_2260" x1="58.5343" y1="59.0638" x2="58.5343" y2="54.6919" gradientUnits="userSpaceOnUse">
<stop stop-color="#B8D0FF"/>
<stop offset="0.0320344" stop-color="#C1D6FF"/>
<stop offset="0.1277" stop-color="#D8E5FF"/>
<stop offset="0.239" stop-color="#EAF1FF"/>
<stop offset="0.3737" stop-color="#F6F9FF"/>
<stop offset="0.5564" stop-color="#FDFEFF"/>
<stop offset="0.9982" stop-color="white"/>
</linearGradient>
<linearGradient id="paint28_linear_163_2260" x1="58.534" y1="67.8113" x2="58.534" y2="63.4672" gradientUnits="userSpaceOnUse">
<stop stop-color="#393E46"/>
<stop offset="0.9982" stop-color="#00010A"/>
</linearGradient>
<linearGradient id="paint29_linear_163_2260" x1="21.8111" y1="32.1094" x2="21.8111" y2="16.8572" gradientUnits="userSpaceOnUse">
<stop stop-color="#393E46"/>
<stop offset="0.9982" stop-color="#00010A"/>
</linearGradient>
<linearGradient id="paint30_linear_163_2260" x1="21.8118" y1="36.923" x2="21.8118" y2="27.2957" gradientUnits="userSpaceOnUse">
<stop offset="0.00182292" stop-color="#00010A"/>
<stop offset="1" stop-color="#393E46"/>
</linearGradient>
<linearGradient id="paint31_linear_163_2260" x1="21.8118" y1="38.5839" x2="21.8118" y2="35.2622" gradientUnits="userSpaceOnUse">
<stop offset="0.00182292" stop-color="#00010A"/>
<stop offset="1" stop-color="#393E46"/>
</linearGradient>
<linearGradient id="paint32_linear_163_2260" x1="21.8111" y1="50.2171" x2="21.8111" y2="35.7866" gradientUnits="userSpaceOnUse">
<stop stop-color="#393E46"/>
<stop offset="0.9982" stop-color="#00010A"/>
</linearGradient>
<linearGradient id="paint33_linear_163_2260" x1="95.2666" y1="32.1094" x2="95.2666" y2="16.8572" gradientUnits="userSpaceOnUse">
<stop stop-color="#393E46"/>
<stop offset="0.9982" stop-color="#00010A"/>
</linearGradient>
<linearGradient id="paint34_linear_163_2260" x1="95.2673" y1="36.923" x2="95.2673" y2="27.2957" gradientUnits="userSpaceOnUse">
<stop offset="0.00182292" stop-color="#00010A"/>
<stop offset="1" stop-color="#393E46"/>
</linearGradient>
<linearGradient id="paint35_linear_163_2260" x1="95.2673" y1="38.5839" x2="95.2673" y2="35.2622" gradientUnits="userSpaceOnUse">
<stop offset="0.00182292" stop-color="#00010A"/>
<stop offset="1" stop-color="#393E46"/>
</linearGradient>
<linearGradient id="paint36_linear_163_2260" x1="95.2666" y1="50.2171" x2="95.2666" y2="35.7866" gradientUnits="userSpaceOnUse">
<stop stop-color="#393E46"/>
<stop offset="0.9982" stop-color="#00010A"/>
</linearGradient>
<linearGradient id="paint37_linear_163_2260" x1="16.8001" y1="56.1986" x2="26.5348" y2="56.1986" gradientUnits="userSpaceOnUse">
<stop stop-color="#767D8D"/>
<stop offset="0.429" stop-color="#424653"/>
<stop offset="0.9982" stop-color="#00010A"/>
</linearGradient>
<linearGradient id="paint38_linear_163_2260" x1="21.6645" y1="53.799" x2="22.0131" y2="48.8939" gradientUnits="userSpaceOnUse">
<stop stop-color="#767D8D"/>
<stop offset="0.429" stop-color="#424653"/>
<stop offset="0.9982" stop-color="#00010A"/>
</linearGradient>
<linearGradient id="paint39_linear_163_2260" x1="3.587" y1="50.7625" x2="9.02223" y2="37.1937" gradientUnits="userSpaceOnUse">
<stop offset="0.00182292" stop-color="#FF33CE"/>
<stop offset="0.571" stop-color="#CF1AB5"/>
<stop offset="1" stop-color="#FF00DB"/>
</linearGradient>
<linearGradient id="paint40_linear_163_2260" x1="26.079" y1="61.74" x2="32.4688" y2="47.3009" gradientUnits="userSpaceOnUse">
<stop offset="0.00182292" stop-color="#FF33CE"/>
<stop offset="0.571" stop-color="#CF1AB5"/>
<stop offset="1" stop-color="#FF00DB"/>
</linearGradient>
<linearGradient id="paint41_linear_163_2260" x1="17.6164" y1="51.2521" x2="25.7116" y2="51.2521" gradientUnits="userSpaceOnUse">
<stop offset="0.00182292" stop-color="#00010A"/>
<stop offset="0.571" stop-color="#424653"/>
<stop offset="1" stop-color="#767D8D"/>
</linearGradient>
<linearGradient id="paint42_linear_163_2260" x1="18.8026" y1="51.0165" x2="21.0728" y2="46.4522" gradientUnits="userSpaceOnUse">
<stop offset="0.00182292" stop-color="#00010A"/>
<stop offset="0.571" stop-color="#424653"/>
<stop offset="1" stop-color="#767D8D"/>
</linearGradient>
<linearGradient id="paint43_linear_163_2260" x1="19.9178" y1="48.5139" x2="23.4299" y2="48.5139" gradientUnits="userSpaceOnUse">
<stop offset="0.00182292" stop-color="#00010A"/>
<stop offset="0.571" stop-color="#424653"/>
<stop offset="1" stop-color="#767D8D"/>
</linearGradient>
<linearGradient id="paint44_linear_163_2260" x1="20.432" y1="47.646" x2="21.4169" y2="45.6659" gradientUnits="userSpaceOnUse">
<stop offset="0.00182292" stop-color="#00010A"/>
<stop offset="0.571" stop-color="#424653"/>
<stop offset="1" stop-color="#767D8D"/>
</linearGradient>
<linearGradient id="paint45_linear_163_2260" x1="89.7518" y1="56.1933" x2="99.4866" y2="56.1933" gradientUnits="userSpaceOnUse">
<stop stop-color="#767D8D"/>
<stop offset="0.429" stop-color="#424653"/>
<stop offset="0.9982" stop-color="#00010A"/>
</linearGradient>
<linearGradient id="paint46_linear_163_2260" x1="94.6254" y1="53.7087" x2="94.9741" y2="48.8034" gradientUnits="userSpaceOnUse">
<stop stop-color="#767D8D"/>
<stop offset="0.429" stop-color="#424653"/>
<stop offset="0.9982" stop-color="#00010A"/>
</linearGradient>
<linearGradient id="paint47_linear_163_2260" x1="98.6865" y1="51.2855" x2="106.115" y2="36.3502" gradientUnits="userSpaceOnUse">
<stop offset="0.00182292" stop-color="#FF33CE"/>
<stop offset="0.571" stop-color="#CF1AB5"/>
<stop offset="1" stop-color="#FF00DB"/>
</linearGradient>
<linearGradient id="paint48_linear_163_2260" x1="78.1257" y1="62.0082" x2="85.2697" y2="47.9061" gradientUnits="userSpaceOnUse">
<stop offset="0.00182292" stop-color="#FF33CE"/>
<stop offset="0.571" stop-color="#CF1AB5"/>
<stop offset="1" stop-color="#FF00DB"/>
</linearGradient>
<linearGradient id="paint49_linear_163_2260" x1="90.5776" y1="51.1617" x2="98.6726" y2="51.1617" gradientUnits="userSpaceOnUse">
<stop offset="0.00182292" stop-color="#00010A"/>
<stop offset="0.571" stop-color="#424653"/>
<stop offset="1" stop-color="#767D8D"/>
</linearGradient>
<linearGradient id="paint50_linear_163_2260" x1="91.7631" y1="50.9261" x2="94.0333" y2="46.3619" gradientUnits="userSpaceOnUse">
<stop offset="0.00182292" stop-color="#00010A"/>
<stop offset="0.571" stop-color="#424653"/>
<stop offset="1" stop-color="#767D8D"/>
</linearGradient>
<linearGradient id="paint51_linear_163_2260" x1="92.8696" y1="48.5086" x2="96.3815" y2="48.5086" gradientUnits="userSpaceOnUse">
<stop offset="0.00182292" stop-color="#00010A"/>
<stop offset="0.571" stop-color="#424653"/>
<stop offset="1" stop-color="#767D8D"/>
</linearGradient>
<linearGradient id="paint52_linear_163_2260" x1="93.3841" y1="47.6404" x2="94.369" y2="45.6603" gradientUnits="userSpaceOnUse">
<stop offset="0.00182292" stop-color="#00010A"/>
<stop offset="0.571" stop-color="#424653"/>
<stop offset="1" stop-color="#767D8D"/>
</linearGradient>
<linearGradient id="paint53_linear_163_2260" x1="58.5393" y1="8.98638" x2="58.5393" y2="5.30614" gradientUnits="userSpaceOnUse">
<stop offset="0.00182292" stop-color="white"/>
<stop offset="1" stop-color="#B8D0FF"/>
</linearGradient>
<linearGradient id="paint54_linear_163_2260" x1="95.1197" y1="13.4617" x2="95.4684" y2="8.55652" gradientUnits="userSpaceOnUse">
<stop stop-color="#767D8D"/>
<stop offset="0.429" stop-color="#424653"/>
<stop offset="0.9982" stop-color="#00010A"/>
</linearGradient>
<linearGradient id="paint55_linear_163_2260" x1="76.9413" y1="10.4723" x2="82.5418" y2="-3.20818" gradientUnits="userSpaceOnUse">
<stop offset="0.00182292" stop-color="#FF33CE"/>
<stop offset="0.571" stop-color="#CF1AB5"/>
<stop offset="1" stop-color="#FF00DB"/>
</linearGradient>
<linearGradient id="paint56_linear_163_2260" x1="99.6171" y1="21.4513" x2="106.007" y2="7.01222" gradientUnits="userSpaceOnUse">
<stop offset="0.00182292" stop-color="#FF33CE"/>
<stop offset="0.571" stop-color="#CF1AB5"/>
<stop offset="1" stop-color="#FF00DB"/>
</linearGradient>
<linearGradient id="paint57_linear_163_2260" x1="91.0718" y1="10.9148" x2="99.1669" y2="10.9148" gradientUnits="userSpaceOnUse">
<stop offset="0.00182292" stop-color="#00010A"/>
<stop offset="0.571" stop-color="#424653"/>
<stop offset="1" stop-color="#767D8D"/>
</linearGradient>
<linearGradient id="paint58_linear_163_2260" x1="92.2579" y1="10.6793" x2="94.5284" y2="6.11473" gradientUnits="userSpaceOnUse">
<stop offset="0.00182292" stop-color="#00010A"/>
<stop offset="0.571" stop-color="#424653"/>
<stop offset="1" stop-color="#767D8D"/>
</linearGradient>
<linearGradient id="paint59_linear_163_2260" x1="93.3733" y1="8.17645" x2="96.8854" y2="8.17645" gradientUnits="userSpaceOnUse">
<stop offset="0.00182292" stop-color="#00010A"/>
<stop offset="0.571" stop-color="#424653"/>
<stop offset="1" stop-color="#767D8D"/>
</linearGradient>
<linearGradient id="paint60_linear_163_2260" x1="93.8875" y1="7.30855" x2="94.8724" y2="5.32842" gradientUnits="userSpaceOnUse">
<stop offset="0.00182292" stop-color="#00010A"/>
<stop offset="0.571" stop-color="#424653"/>
<stop offset="1" stop-color="#767D8D"/>
</linearGradient>
</defs>
</svg>
