<svg width="238" height="54" viewBox="0 0 238 54" fill="none" xmlns="http://www.w3.org/2000/svg">
<g clip-path="url(#clip0_23_1123)">
<path d="M12.6002 0.100098H41.9002C48.7002 0.100098 54.3002 5.6001 54.3002 12.5001V41.8001C54.3002 48.6001 48.8002 54.2001 41.9002 54.2001H12.6002C5.8002 54.2001 0.200195 48.7001 0.200195 41.8001V12.5001C0.200195 5.6001 5.7002 0.100098 12.6002 0.100098Z" fill="#75E1D5"/>
<path d="M17.4 44.5H16V38.2H9.5V36.8H16V33C16 30.1 18.3 27.7 21.2 27.6H25V25.1H21C18.1 25.1 15.7 22.7 15.7 19.8C15.7 16.9 18.1 14.5 21 14.5C21.7 14.5 22.4 14.6 23 14.9C24.9 15.8 26.2 17.7 26.3 19.8V23.8H28.5V19.8C28.5 18.1 29.3 16.6 30.6 15.5C31.8 14.5 33.5 14.1 35.1 14.5C37 15 38.4 16.5 38.9 18.3C39.3 19.9 38.9 21.7 37.9 23C36.9 24.2 35.5 25 33.9 25H30V27.5H33.8C36.7 27.5 39.1 29.9 39.1 32.8C39.1 32.8 39.1 32.8 39.1 32.9C39.1 34.6 38.3 36.2 37 37.2C35.7 38.2 34.1 38.5 32.5 38C30.3 37.3 28.7 35.2 28.7 32.8V28.8H26.5V32.8C26.5 35.7 24.2 38 21.3 38H17.5L17.4 44.5ZM29.9 29V33C30 34.7 31.1 36.2 32.7 36.8C33.8 37.1 35 36.9 36 36.2C37 35.4 37.6 34.2 37.6 33C37.6 30.8 35.9 29 33.8 29H29.9ZM17.4 36.9H21.2C23.3 36.9 25 35.2 25 33V29H21.2C19 29 17.3 30.8 17.4 33V36.9ZM26.4 25.2V27.7H28.6V25.2H26.4ZM29.9 23.8H33.7C34.9 23.8 36 23.3 36.7 22.3C37.5 21.3 37.7 20 37.4 18.8C37.1 17.4 36 16.3 34.6 15.9C33.5 15.6 32.3 15.9 31.4 16.6C30.4 17.4 29.9 18.5 29.9 19.8V23.8ZM21 15.9C20.2 15.9 19.4 16.1 18.8 16.6C17 17.9 16.6 20.4 17.9 22.2C18.6 23.2 19.8 23.8 21 23.8H25V19.8C24.9 18.2 24 16.8 22.6 16.1C22.1 16 21.6 15.9 21 15.9Z" fill="white"/>
<path d="M75.7002 20.5001C79.3002 20.4001 82.4002 23.3001 82.5002 27.0001C82.5002 27.1001 82.5002 27.3001 82.5002 27.4001C82.6002 31.1001 79.7002 34.3001 76.0002 34.4001C72.3002 34.5001 69.1002 31.6001 69.0002 27.9001C69.0002 27.7001 69.0002 27.6001 69.0002 27.4001C68.9002 23.8001 71.7002 20.7001 75.4002 20.6001C75.4002 20.5001 75.5002 20.5001 75.7002 20.5001ZM75.7002 31.7001C77.9002 31.7001 79.8002 29.9001 79.8002 27.7001C79.8002 27.6001 79.8002 27.5001 79.8002 27.3001C80.0002 25.0001 78.3002 23.1001 76.0002 22.9001C73.7002 22.7001 71.8002 24.4001 71.6002 26.7001C71.6002 26.9001 71.6002 27.1001 71.6002 27.3001C71.4002 29.5001 73.0002 31.4001 75.2002 31.7001C75.4002 31.7001 75.5002 31.7001 75.7002 31.7001Z" fill="#0B2C60"/>
<path d="M86.8999 33.9H84.3999V24.8H86.7999V25.9C87.3999 25 88.3999 24.5 89.3999 24.5C91.6999 24.5 92.6999 26.1 92.6999 28.1V33.8H90.1999V28.5C90.2999 27.6 89.6999 26.8 88.7999 26.7C88.6999 26.7 88.5999 26.7 88.4999 26.7C87.5999 26.7 86.7999 27.5 86.7999 28.4C86.7999 28.5 86.7999 28.5 86.7999 28.6V33.9H86.8999Z" fill="#0B2C60"/>
<path d="M98.3002 24.8H100.1V27H98.3002V30.8C98.3002 31.6 98.7002 31.9 99.4002 31.9C99.7002 31.9 99.9002 31.9 100.2 31.8V33.8C99.7002 34 99.2002 34 98.8002 34C97.4002 34.1 96.1002 33.1 95.9002 31.7C95.9002 31.5 95.9002 31.4 95.9002 31.2V27H94.2002V24.8H94.7002C95.4002 24.9 96.1002 24.3 96.1002 23.6C96.1002 23.5 96.1002 23.4 96.1002 23.3V22H98.3002V24.8Z" fill="#0B2C60"/>
<path d="M104.2 33.9H101.7V20.5H104.2V25.6C104.8 24.9 105.7 24.6 106.7 24.6C109 24.6 110.1 26.2 110.1 28.2V33.9H107.6V28.6C107.7 27.7 107.1 26.9 106.2 26.8C106.1 26.8 106 26.8 105.9 26.8C105 26.8 104.2 27.6 104.2 28.5C104.2 28.5 104.2 28.5 104.2 28.6V33.9Z" fill="#0B2C60"/>
<path d="M120.8 31.3C120.2 33.1 118.5 34.3 116.6 34.2C114.1 34.3 111.9 32.2 111.9 29.7C111.9 29.6 111.9 29.5 111.9 29.3C111.8 26.8 113.7 24.6 116.2 24.5H116.3C119.1 24.5 120.8 26.3 120.8 29.2C120.8 29.6 120.8 29.9 120.8 30H114.3C114.4 31.2 115.4 32.1 116.6 32.1C117.5 32.2 118.4 31.6 118.7 30.7L120.8 31.3ZM118.5 28.3C118.5 27.3 117.6 26.5 116.6 26.5H116.5C115.5 26.5 114.6 27.3 114.5 28.3H118.5Z" fill="#0B2C60"/>
<path d="M125.8 23.7999V24.7999H129.4V20.4999H131.9V33.8999H129.4V26.8999H125.8V33.8999H123.3V26.8999H121.8V24.7999H123.3V23.7999C123.2 22.0999 124.5 20.4999 126.2 20.3999C126.3 20.3999 126.5 20.3999 126.6 20.3999C127 20.3999 127.4 20.4999 127.8 20.5999V22.6999C127.5 22.5999 127.3 22.5999 127 22.5999C126.4 22.4999 125.8 22.9999 125.7 23.6999C125.8 23.6999 125.8 23.6999 125.8 23.7999Z" fill="#0B2C60"/>
<path d="M135 37.5L137.1 32.8L133.2 24.8H136L138.4 30.1L140.6 24.8H143.2L137.5 37.5H135Z" fill="#0B2C60"/>
<path d="M147.6 33.7999V20.7H151.7C155 20.7 157.9 22.9999 157.9 27.2999C157.9 31.5999 155 33.7999 151.6 33.7999H147.6ZM151.6 32.7999C154.3 32.7999 156.7 30.9999 156.7 27.2999C156.7 23.5999 154.3 21.7999 151.6 21.7999H148.7V32.7999H151.6Z" fill="#0B2C60"/>
<path d="M164.7 26.1C164.5 26 164.2 26 164 26C162.5 26 161.4 27 161.4 29V33.8H160.3V25H161.4V26.6C161.8 25.5 162.9 24.8 164 24.8C164.2 24.8 164.5 24.8 164.7 24.9V26.1Z" fill="#0B2C60"/>
<path d="M165.6 29.4C165.4 27 167.3 24.9 169.7 24.7C172.1 24.5 174.2 26.4 174.4 28.8C174.4 29 174.4 29.2 174.4 29.4C174.6 31.8 172.7 33.9 170.3 34.1C167.9 34.3 165.8 32.4 165.6 30C165.6 29.8 165.6 29.6 165.6 29.4ZM170 33.1C171.8 33.1 173.3 31.5 173.3 29.7C173.3 29.6 173.3 29.5 173.3 29.5C173.5 27.7 172.2 26.1 170.4 25.9C168.6 25.7 167 27 166.8 28.8C166.8 29 166.8 29.3 166.8 29.5C166.6 31.3 168 33 169.8 33.1C169.8 33.1 169.9 33.1 170 33.1Z" fill="#0B2C60"/>
<path d="M177.9 33.8H176.8V25H177.9V26.4C178.5 25.4 179.6 24.7 180.8 24.8C182.5 24.7 183.9 26 183.9 27.7C183.9 27.8 183.9 28 183.9 28.1V33.9H182.8V28.3C182.9 27.1 182.1 26 180.9 25.8C180.7 25.8 180.6 25.8 180.4 25.8C179 25.8 177.9 27 177.9 28.4C177.9 28.5 177.9 28.5 177.9 28.6V33.8Z" fill="#0B2C60"/>
<path d="M194.2 31.2999C193.7 32.9999 192.1 34.1 190.3 34C188 34 186 32.2999 186 29.2999C186 26.4999 187.9 24.7 190.1 24.7C192.7 24.7 194.2 26.6 194.2 29.2C194.2 29.3 194.2 29.5 194.2 29.6H187.1V29.7C187 31.5 188.3 32.9999 190.1 33.0999C190.2 33.0999 190.2 33.0999 190.3 33.0999C191.6 33.1999 192.8 32.3 193.2 31L194.2 31.2999ZM193.1 28.7C193.2 27.1 192 25.8 190.5 25.7C190.4 25.7 190.3 25.7 190.2 25.7C188.6 25.7 187.3 27.1 187.3 28.7H193.1Z" fill="#0B2C60"/>
<path d="M198 28.3V33.9H196.8V20.7H201.1C203.2 20.6 205 22.2 205.1 24.3C205.2 26.4 203.6 28.2 201.5 28.3C201.4 28.3 201.2 28.3 201.1 28.3H198ZM201 27.2C202.5 27.3 203.8 26.2 204 24.7C204.1 23.2 203 21.9 201.5 21.7C201.3 21.7 201.2 21.7 201 21.7H198V27.2H201Z" fill="#0B2C60"/>
<path d="M207.7 20.3999C208.2 20.4999 208.6 20.8999 208.5 21.3999C208.5 21.7999 208.1 22.1999 207.7 22.1999C207.2 22.2999 206.7 21.8999 206.7 21.3999C206.6 20.8999 207 20.3999 207.5 20.3999C207.6 20.3999 207.6 20.3999 207.7 20.3999ZM207.1 33.7999V24.9999H208.2V33.7999H207.1Z" fill="#0B2C60"/>
<path d="M211.2 33.8V20.5H212.3V33.9H211.2V33.8Z" fill="#0B2C60"/>
<path d="M214.7 29.3999C214.6 26.9999 216.5 24.8999 218.9 24.7999C221.3 24.6999 223.4 26.5999 223.5 28.9999C223.5 29.0999 223.5 29.2999 223.5 29.3999C223.6 31.7999 221.7 33.8999 219.3 33.9999C216.9 34.0999 214.8 32.1999 214.7 29.7999C214.7 29.6999 214.7 29.4999 214.7 29.3999ZM219 33.0999C220.8 33.0999 222.3 31.4999 222.3 29.6999C222.3 29.5999 222.3 29.4999 222.3 29.4999C222.5 27.6999 221.2 26.0999 219.4 25.8999C217.6 25.6999 216 26.9999 215.8 28.7999C215.8 28.9999 215.8 29.2999 215.8 29.4999C215.6 31.2999 217 32.9999 218.8 33.0999C218.8 33.0999 218.9 33.0999 219 33.0999Z" fill="#0B2C60"/>
<path d="M227.4 25H229.7V26H227.4V31.2999C227.4 32.4 227.9 32.9 228.9 32.9C229.2 32.9 229.4 32.8 229.7 32.7V33.7C229.4 33.8 229 33.9 228.6 33.9C227.4 34 226.4 33.0999 226.3 31.9C226.3 31.7999 226.3 31.6 226.3 31.5V26H224.4V25H225.1C226 25 226.3 24.6 226.3 23.7V22.2H227.4V25Z" fill="#0B2C60"/>
<path d="M232 31.0999C232.2 32.2999 233.2 33.0999 234.4 32.9999C235.4 33.0999 236.2 32.4999 236.4 31.4999V31.3999C236.4 30.5999 235.8 30.0999 234.9 29.8999L233.5 29.5999C232.3 29.4999 231.4 28.4999 231.3 27.1999C231.4 25.6999 232.8 24.4999 234.3 24.5999C235.7 24.4999 237 25.4999 237.4 26.7999L236.4 27.1999C236.2 26.0999 235.3 25.3999 234.2 25.4999C233.3 25.3999 232.4 26.0999 232.3 26.9999C232.3 27.7999 232.8 28.1999 233.7 28.3999L235.1 28.6999C236.6 28.9999 237.4 29.8999 237.4 31.1999C237.3 32.6999 236 33.8999 234.5 33.7999H234.4C232.8 33.8999 231.3 32.7999 231 31.1999L232 31.0999Z" fill="#0B2C60"/>
</g>
<defs>
<clipPath id="clip0_23_1123">
<rect width="238" height="54" fill="white"/>
</clipPath>
</defs>
</svg>
