<?xml version="1.0" standalone="no"?>
<!DOCTYPE svg PUBLIC "-//W3C//DTD SVG 20010904//EN"
 "http://www.w3.org/TR/2001/REC-SVG-20010904/DTD/svg10.dtd">
<svg version="1.0" xmlns="http://www.w3.org/2000/svg"
 width="723.000000pt" height="723.000000pt" viewBox="0 0 723.000000 723.000000"
 preserveAspectRatio="xMidYMid meet">
<metadata>
Created by potrace 1.14, written by Peter Selinger 2001-2017
</metadata>
<g transform="translate(0.000000,723.000000) scale(0.100000,-0.100000)"
fill="#000000" stroke="none">
<path d="M1873 6170 c-296 -37 -552 -189 -723 -427 -114 -159 -188 -347 -211
-536 -32 -267 72 -608 258 -840 30 -38 182 -197 336 -355 155 -158 321 -328
369 -377 l87 -91 -380 -379 c-209 -209 -406 -414 -437 -455 -244 -321 -311
-769 -169 -1131 97 -247 278 -446 515 -567 270 -138 570 -160 859 -63 157 52
249 106 483 284 162 124 247 180 335 225 199 99 446 114 666 39 129 -44 219
-98 391 -230 190 -147 318 -233 403 -273 369 -171 812 -131 1121 102 208 157
365 405 420 667 61 291 -20 635 -212 904 -36 49 -208 233 -439 469 -209 213
-380 391 -380 395 0 4 176 185 390 401 304 306 403 412 447 478 154 233 215
450 205 724 -10 280 -101 500 -288 700 -59 63 -195 176 -212 176 -2 0 -30 16
-62 35 -152 91 -390 145 -580 130 -286 -21 -452 -94 -771 -336 -236 -179 -339
-239 -491 -285 -78 -24 -104 -27 -233 -27 -252 1 -386 53 -659 256 -53 40
-106 81 -119 92 -111 95 -296 203 -422 245 -138 46 -352 68 -497 50z"/>
</g>
</svg>
